<?xml version="1.0" encoding="UTF-8"?>
<!DOCTYPE svg PUBLIC "-//W3C//DTD SVG 1.1//EN" "http://www.w3.org/Graphics/SVG/1.1/DTD/svg11.dtd">
<svg xmlns="http://www.w3.org/2000/svg" version="1.1" width="320px" height="320px" style="shape-rendering:geometricPrecision; text-rendering:geometricPrecision; image-rendering:optimizeQuality; fill-rule:evenodd; clip-rule:evenodd" xmlns:xlink="http://www.w3.org/1999/xlink">
<g><path style="opacity:1" fill="#5b3722" d="M 260.5,-0.5 C 264.167,-0.5 267.833,-0.5 271.5,-0.5C 274.06,1.27333 276.393,3.27333 278.5,5.5C 279.51,9.61377 280.51,13.6138 281.5,17.5C 281.365,24.2901 282.699,30.6234 285.5,36.5C 284.178,36.67 283.011,36.3366 282,35.5C 280.828,27.8053 279.662,20.1387 278.5,12.5C 276.654,12.7778 275.32,12.1112 274.5,10.5C 275.348,8.59136 275.682,6.59136 275.5,4.5C 273.599,4.56681 271.766,4.23348 270,3.5C 268.739,3.75908 267.739,4.42575 267,5.5C 265.611,1.72791 264.611,1.72791 264,5.5C 261.879,3.54263 259.379,3.04263 256.5,4C 255.782,5.98744 254.782,7.82077 253.5,9.5C 247.863,12.7437 241.863,15.077 235.5,16.5C 233.304,16.4954 231.304,16.162 229.5,15.5C 231.833,15.5 234.167,15.5 236.5,15.5C 240.461,14.5208 243.794,12.5208 246.5,9.5C 247.167,9.5 247.5,9.16667 247.5,8.5C 248.71,8.06795 249.71,7.40128 250.5,6.5C 251.167,6.5 251.5,6.16667 251.5,5.5C 254.523,3.46671 257.523,1.46671 260.5,-0.5 Z"/></g>
<g><path style="opacity:0.004" fill="#000000" d="M 279.5,5.5 C 279.167,5.5 278.833,5.5 278.5,5.5C 278.833,2.83333 279.167,2.83333 279.5,5.5 Z"/></g>
<g><path style="opacity:0.004" fill="#1a0400" d="M 251.5,5.5 C 250.833,5.5 250.5,5.83333 250.5,6.5C 248.025,6.2533 248.025,5.58664 250.5,4.5C 251.107,4.62358 251.44,4.95691 251.5,5.5 Z"/></g>
<g><path style="opacity:0.008" fill="#7f0000" d="M 279.5,5.5 C 280.525,5.89657 280.692,6.56323 280,7.5C 279.536,6.90558 279.369,6.23891 279.5,5.5 Z"/></g>
<g><path style="opacity:0.005" fill="#341206" d="M 247.5,8.5 C 246.833,8.5 246.5,8.83333 246.5,9.5C 244.025,9.2533 244.025,8.58664 246.5,7.5C 247.107,7.62358 247.44,7.95691 247.5,8.5 Z"/></g>
<g><path style="opacity:0.008" fill="#621402" d="M 221.5,10.5 C 217.154,10.6657 212.821,10.499 208.5,10C 213.02,9.18636 217.354,9.35303 221.5,10.5 Z"/></g>
<g><path style="opacity:0.012" fill="#59413b" d="M 221.5,10.5 C 222.873,10.3433 224.207,10.51 225.5,11C 223.934,11.765 222.601,11.5983 221.5,10.5 Z"/></g>
<g><path style="opacity:0.008" fill="#6d2607" d="M 226.5,12.5 C 228.5,11.1667 230.5,11.1667 232.5,12.5C 230.5,12.5 228.5,12.5 226.5,12.5 Z"/></g>
<g><path style="opacity:0.012" fill="#5a2e24" d="M 232.5,12.5 C 233.873,12.3433 235.207,12.51 236.5,13C 234.934,13.765 233.601,13.5983 232.5,12.5 Z"/></g>
<g><path style="opacity:0.008" fill="#4e0e01" d="M 281.5,17.5 C 281.338,15.4727 281.505,13.4727 282,11.5C 282.789,13.7116 282.622,15.7116 281.5,17.5 Z"/></g>
<g><path style="opacity:0.004" fill="#000000" d="M 204.5,14.5 C 203.833,14.5 203.5,14.8333 203.5,15.5C 202.957,15.44 202.624,15.1067 202.5,14.5C 203.257,13.2267 203.923,13.2267 204.5,14.5 Z"/></g>
<g><path style="opacity:0.918" fill="#5b4233" d="M 226.5,12.5 C 229.833,13.5 233.167,14.5 236.5,15.5C 234.167,15.5 231.833,15.5 229.5,15.5C 222.977,13.5648 216.311,13.0648 209.5,14C 206.804,14.6898 204.637,16.1898 203,18.5C 200.075,28.3803 201.742,37.3803 208,45.5C 208.667,48.8333 208.667,52.1667 208,55.5C 188.885,84.5833 196.718,96.9166 231.5,92.5C 223.221,93.4396 214.888,93.7729 206.5,93.5C 201.583,91.5851 197.917,88.2517 195.5,83.5C 195.768,81.901 195.434,80.5676 194.5,79.5C 194.5,78.8333 194.5,78.1667 194.5,77.5C 198.255,68.6568 202.588,59.9901 207.5,51.5C 207.006,49.9745 206.339,48.6412 205.5,47.5C 205.737,46.209 205.404,45.209 204.5,44.5C 204.672,43.5084 204.338,42.8417 203.5,42.5C 203.768,40.901 203.434,39.5676 202.5,38.5C 202.672,37.5084 202.338,36.8417 201.5,36.5C 201.737,35.209 201.404,34.209 200.5,33.5C 200.737,32.209 200.404,31.209 199.5,30.5C 198.673,24.8471 200.007,19.8471 203.5,15.5C 204.167,15.5 204.5,15.1667 204.5,14.5C 205.683,13.4955 207.016,12.6622 208.5,12C 214.516,11.5012 220.516,11.6679 226.5,12.5 Z"/></g>
<g><path style="opacity:0.999" fill="#603416" d="M 285.5,36.5 C 290.045,39.266 294.378,42.266 298.5,45.5C 297.761,45.369 297.094,45.5357 296.5,46C 305.002,50.4507 307.502,57.284 304,66.5C 302.833,67.6667 301.667,68.8333 300.5,70C 293.253,73.4593 285.919,76.6259 278.5,79.5C 275.963,83.4199 274.963,87.7533 275.5,92.5C 275.5,93.5 275.5,94.5 275.5,95.5C 274.596,96.209 274.263,97.209 274.5,98.5C 273.596,99.209 273.263,100.209 273.5,101.5C 272.596,102.209 272.263,103.209 272.5,104.5C 271.662,104.842 271.328,105.508 271.5,106.5C 269.5,107.833 267.833,109.5 266.5,111.5C 265.508,111.328 264.842,111.662 264.5,112.5C 263.508,112.328 262.842,112.662 262.5,113.5C 259.833,113.5 257.167,113.5 254.5,113.5C 252.537,112.18 250.537,110.846 248.5,109.5C 248.5,108.833 248.167,108.5 247.5,108.5C 247.5,107.833 247.167,107.5 246.5,107.5C 246.5,106.833 246.167,106.5 245.5,106.5C 245.5,105.833 245.167,105.5 244.5,105.5C 244.5,104.833 244.167,104.5 243.5,104.5C 239.833,100.167 235.833,96.1667 231.5,92.5C 196.718,96.9166 188.885,84.5833 208,55.5C 208.667,52.1667 208.667,48.8333 208,45.5C 201.742,37.3803 200.075,28.3803 203,18.5C 204.637,16.1898 206.804,14.6898 209.5,14C 216.311,13.0648 222.977,13.5648 229.5,15.5C 231.304,16.162 233.304,16.4954 235.5,16.5C 241.863,15.077 247.863,12.7437 253.5,9.5C 254.782,7.82077 255.782,5.98744 256.5,4C 259.379,3.04263 261.879,3.54263 264,5.5C 264.611,1.72791 265.611,1.72791 267,5.5C 267.739,4.42575 268.739,3.75908 270,3.5C 271.766,4.23348 273.599,4.56681 275.5,4.5C 275.682,6.59136 275.348,8.59136 274.5,10.5C 275.32,12.1112 276.654,12.7778 278.5,12.5C 279.662,20.1387 280.828,27.8053 282,35.5C 283.011,36.3366 284.178,36.67 285.5,36.5 Z"/></g>
<g><path style="opacity:1" fill="#fde54b" d="M 262.5,10.5 C 265.044,10.1043 267.211,10.771 269,12.5C 270.754,22.2215 272.588,31.8882 274.5,41.5C 281.027,46.5269 287.693,51.3602 294.5,56C 295.804,56.804 296.471,57.9707 296.5,59.5C 294.608,61.7932 292.275,63.6265 289.5,65C 282.276,67.8616 275.442,71.3616 269,75.5C 266.003,84.4645 263.003,93.4645 260,102.5C 259.275,103.059 258.442,103.392 257.5,103.5C 249.743,97.247 242.409,90.4137 235.5,83C 225.833,82.6667 216.167,82.3333 206.5,82C 205.903,80.9383 205.57,79.7716 205.5,78.5C 209.492,69.8491 213.492,61.1824 217.5,52.5C 215.287,44.4076 212.787,36.4076 210,28.5C 209.24,23.9262 211.24,21.9262 216,22.5C 224.676,24.9777 233.509,26.1443 242.5,26C 249.638,21.352 256.305,16.1853 262.5,10.5 Z"/></g>
<g><path style="opacity:0.004" fill="#000000" d="M 76.5,21.5 C 77.8333,22.1667 77.8333,22.1667 76.5,21.5 Z"/></g>
<g><path style="opacity:0.012" fill="#503b08" d="M 282.5,18.5 C 283.613,19.9464 283.78,21.6131 283,23.5C 282.506,21.8659 282.34,20.1992 282.5,18.5 Z"/></g>
<g><path style="opacity:0.004" fill="#000000" d="M 78.5,23.5 C 79.8333,24.1667 79.8333,24.1667 78.5,23.5 Z"/></g>
<g><path style="opacity:0.012" fill="#6b4835" d="M 198.5,30.5 C 197.362,27.6965 197.195,24.6965 198,21.5C 198.498,24.4816 198.665,27.4816 198.5,30.5 Z"/></g>
<g><path style="opacity:0.005" fill="#000000" d="M 78.5,26.5 C 78.56,25.9569 78.8933,25.6236 79.5,25.5C 80.7733,26.2565 80.7733,26.9232 79.5,27.5C 79.5,26.8333 79.1667,26.5 78.5,26.5 Z"/></g>
<g><path style="opacity:0.004" fill="#2a1209" d="M 82.5,30.5 C 83.0968,29.8614 83.9302,29.528 85,29.5C 87.8236,30.0539 90.657,30.5539 93.5,31C 89.8125,31.4501 86.1458,31.2834 82.5,30.5 Z"/></g>
<g><path style="opacity:0.012" fill="#2c2c2c" d="M 198.5,30.5 C 198.833,30.5 199.167,30.5 199.5,30.5C 199.5,31.5 199.5,32.5 199.5,33.5C 198.596,32.791 198.263,31.791 198.5,30.5 Z"/></g>
<g><path style="opacity:0.012" fill="#5e0500" d="M 58.5,33.5 C 56.3544,33.3036 56.1878,32.3036 58,30.5C 58.4828,31.448 58.6495,32.448 58.5,33.5 Z"/></g>
<g><path style="opacity:0.008" fill="#572403" d="M 199.5,33.5 C 199.833,33.5 200.167,33.5 200.5,33.5C 200.5,34.5 200.5,35.5 200.5,36.5C 199.596,35.791 199.263,34.791 199.5,33.5 Z"/></g>
<g><path style="opacity:0.004" fill="#000000" d="M 46.5,37.5 C 47.8333,38.1667 47.8333,38.1667 46.5,37.5 Z"/></g>
<g><path style="opacity:0.008" fill="#747158" d="M 200.5,36.5 C 200.833,36.5 201.167,36.5 201.5,36.5C 201.5,37.1667 201.5,37.8333 201.5,38.5C 200.662,38.1583 200.328,37.4916 200.5,36.5 Z"/></g>
<g><path style="opacity:0.004" fill="#000000" d="M 46.5,38.5 C 45.8333,39.1667 45.8333,39.1667 46.5,38.5 Z"/></g>
<g><path style="opacity:0.008" fill="#4e0e01" d="M 201.5,38.5 C 201.833,38.5 202.167,38.5 202.5,38.5C 202.5,39.8333 202.5,41.1667 202.5,42.5C 201.566,41.4324 201.232,40.099 201.5,38.5 Z"/></g>
<g><path style="opacity:0.004" fill="#211f07" d="M 202.5,42.5 C 202.833,42.5 203.167,42.5 203.5,42.5C 203.5,43.1667 203.5,43.8333 203.5,44.5C 202.662,44.1583 202.328,43.4916 202.5,42.5 Z"/></g>
<g><path style="opacity:0.004" fill="#000000" d="M 42.5,45.5 C 43.8333,46.1667 43.8333,46.1667 42.5,45.5 Z"/></g>
<g><path style="opacity:0.008" fill="#600c01" d="M 203.5,44.5 C 203.833,44.5 204.167,44.5 204.5,44.5C 204.5,45.5 204.5,46.5 204.5,47.5C 203.596,46.791 203.263,45.791 203.5,44.5 Z"/></g>
<g><path style="opacity:0.008" fill="#7f0000" d="M 98.5,46.5 C 99.8333,47.1667 99.8333,47.1667 98.5,46.5 Z"/></g>
<g><path style="opacity:0.999" fill="#603316" d="M 74.5,70.5 C 74.1667,70.5 73.8333,70.5 73.5,70.5C 71.7376,70.6427 70.0709,70.3094 68.5,69.5C 66.406,72.0307 63.7393,72.8641 60.5,72C 57.7364,68.2949 57.0697,64.2949 58.5,60C 57.7069,58.9148 57.0402,57.7481 56.5,56.5C 58.4233,55.6922 60.4233,55.1922 62.5,55C 60.4049,53.8497 58.2382,53.3497 56,53.5C 55.5,53.1667 55,52.8333 54.5,52.5C 55.1667,51.8333 55.8333,51.1667 56.5,50.5C 56.1667,50.1667 55.8333,49.8333 55.5,49.5C 54.1667,49.8333 52.8333,50.1667 51.5,50.5C 51.8914,49.1095 51.0581,48.1095 49,47.5C 48.6717,44.7929 49.005,42.1262 50,39.5C 52.9431,37.6248 56.1098,36.1248 59.5,35C 61.229,33.2111 61.8957,31.0444 61.5,28.5C 62.8366,27.6851 63.8366,26.5185 64.5,25C 67.8273,24.3897 71.1606,23.8897 74.5,23.5C 74.5,24.8333 74.5,26.1667 74.5,27.5C 77.694,27.1756 78.694,28.3422 77.5,31C 78.1667,32.3333 79.1667,33.3333 80.5,34C 85.2824,34.1186 89.9491,34.7852 94.5,36C 98.7292,40.5561 98.3958,44.7227 93.5,48.5C 92.3044,53.3262 92.3044,58.1595 93.5,63C 92.4307,66.1431 90.4307,68.4764 87.5,70C 82.9885,69.8729 78.6552,70.0395 74.5,70.5 Z"/></g>
<g><path style="opacity:1" fill="#fde54a" d="M 73.5,38.5 C 75.2459,40.2516 77.2459,41.5849 79.5,42.5C 80.5676,43.4345 81.901,43.7678 83.5,43.5C 83.0017,47.5811 81.0017,50.5811 77.5,52.5C 78.8334,53.6199 79.3334,54.9532 79,56.5C 74.5897,57.1484 70.423,58.4817 66.5,60.5C 65.9919,57.8239 65.8253,55.1572 66,52.5C 67.0113,51.6634 68.1779,51.33 69.5,51.5C 69.5,50.5 69.5,49.5 69.5,48.5C 64.9327,47.177 64.7661,45.8437 69,44.5C 69.2895,42.0481 69.9562,39.7148 71,37.5C 71.6708,38.2524 72.5041,38.5858 73.5,38.5 Z"/></g>
<g><path style="opacity:0.004" fill="#000000" d="M 97.5,47.5 C 97.8333,47.5 98.1667,47.5 98.5,47.5C 98.6716,48.4916 98.3382,49.1583 97.5,49.5C 97.5,48.8333 97.5,48.1667 97.5,47.5 Z"/></g>
<g><path style="opacity:0.012" fill="#442f2c" d="M 204.5,47.5 C 204.833,47.5 205.167,47.5 205.5,47.5C 205.167,51.5 204.833,51.5 204.5,47.5 Z"/></g>
<g><path style="opacity:1" fill="#5a3622" d="M 61.5,28.5 C 61.8957,31.0444 61.229,33.2111 59.5,35C 56.1098,36.1248 52.9431,37.6248 50,39.5C 49.005,42.1262 48.6717,44.7929 49,47.5C 51.0581,48.1095 51.8914,49.1095 51.5,50.5C 52.8333,50.1667 54.1667,49.8333 55.5,49.5C 55.8333,49.8333 56.1667,50.1667 56.5,50.5C 55.8333,51.1667 55.1667,51.8333 54.5,52.5C 55,52.8333 55.5,53.1667 56,53.5C 58.2382,53.3497 60.4049,53.8497 62.5,55C 60.4233,55.1922 58.4233,55.6922 56.5,56.5C 57.0402,57.7481 57.7069,58.9148 58.5,60C 57.0697,64.2949 57.7364,68.2949 60.5,72C 63.7393,72.8641 66.406,72.0307 68.5,69.5C 70.0709,70.3094 71.7376,70.6427 73.5,70.5C 73.1667,71.1667 72.8333,71.8333 72.5,72.5C 71.5084,72.3284 70.8417,72.6618 70.5,73.5C 69.5084,73.3284 68.8417,73.6618 68.5,74.5C 67.8333,74.5 67.5,74.8333 67.5,75.5C 62.0995,76.6576 57.9328,74.991 55,70.5C 54.8238,66.3123 54.3238,62.3123 53.5,58.5C 53.1667,57.5 52.5,56.8333 51.5,56.5C 51.5,55.8333 51.1667,55.5 50.5,55.5C 48.8333,53.8333 47.1667,52.1667 45.5,50.5C 43.88,44.8658 45.5467,40.3658 50.5,37C 53.4757,36.2952 56.1423,35.1286 58.5,33.5C 59.3127,31.7392 60.3127,30.0725 61.5,28.5 Z"/></g>
<g><path style="opacity:0.008" fill="#7f0000" d="M 96.5,49.5 C 96.8333,49.5 97.1667,49.5 97.5,49.5C 97.3147,50.1701 96.9813,50.1701 96.5,49.5 Z"/></g>
<g><path style="opacity:0.012" fill="#000000" d="M 45.5,50.5 C 44.8333,51.1667 44.8333,51.1667 45.5,50.5 Z"/></g>
<g><path style="opacity:0.008" fill="#7f0000" d="M 95.5,50.5 C 95.8333,50.5 96.1667,50.5 96.5,50.5C 96.3147,51.1701 95.9813,51.1701 95.5,50.5 Z"/></g>
<g><path style="opacity:0.004" fill="#000000" d="M 307.5,52.5 C 307.167,52.5 306.833,52.5 306.5,52.5C 306.833,49.8333 307.167,49.8333 307.5,52.5 Z"/></g>
<g><path style="opacity:1" fill="#f2d858" d="M 73.5,38.5 C 72.5041,38.5858 71.6708,38.2524 71,37.5C 69.9562,39.7148 69.2895,42.0481 69,44.5C 64.7661,45.8437 64.9327,47.177 69.5,48.5C 69.5,49.5 69.5,50.5 69.5,51.5C 68.1779,51.33 67.0113,51.6634 66,52.5C 65.8253,55.1572 65.9919,57.8239 66.5,60.5C 70.423,58.4817 74.5897,57.1484 79,56.5C 79.3334,54.9532 78.8334,53.6199 77.5,52.5C 81.0017,50.5811 83.0017,47.5811 83.5,43.5C 81.901,43.7678 80.5676,43.4345 79.5,42.5C 82.2469,42.1866 84.9135,42.52 87.5,43.5C 82.0837,48.3282 81.0837,53.9949 84.5,60.5C 83.8333,60.8333 83.1667,61.1667 82.5,61.5C 79.8825,60.6273 77.2158,59.9606 74.5,59.5C 71.4334,60.5301 68.4334,61.8634 65.5,63.5C 64.6764,60.2152 64.1764,56.8818 64,53.5C 61.6244,50.9552 59.1244,48.6218 56.5,46.5C 59.1155,45.2384 61.7821,44.0718 64.5,43C 66.5926,40.1933 68.5926,37.36 70.5,34.5C 72.2882,35.2826 73.2882,36.6159 73.5,38.5 Z"/></g>
<g><path style="opacity:0.008" fill="#000000" d="M 45.5,52.5 C 46.8333,53.1667 46.8333,53.1667 45.5,52.5 Z"/></g>
<g><path style="opacity:0.008" fill="#7f0000" d="M 307.5,52.5 C 308.167,52.5 308.5,52.8333 308.5,53.5C 308.167,53.1667 307.833,52.8333 307.5,52.5 Z"/></g>
<g><path style="opacity:0.012" fill="#523b25" d="M 94.5,51.5 C 94.8333,51.5 95.1667,51.5 95.5,51.5C 95.1667,58.1667 94.8333,58.1667 94.5,51.5 Z"/></g>
<g><path style="opacity:0.008" fill="#560d01" d="M 308.5,53.5 C 309.613,54.9464 309.78,56.6131 309,58.5C 308.506,56.8659 308.34,55.1992 308.5,53.5 Z"/></g>
<g><path style="opacity:0.006" fill="#000000" d="M 50.5,55.5 C 51.1667,55.5 51.5,55.8333 51.5,56.5C 50.5029,57.7125 49.5029,57.5458 48.5,56C 49.0944,55.5357 49.7611,55.369 50.5,55.5 Z"/></g>
<g><path style="opacity:1" fill="#563a2a" d="M 76.5,22.5 C 76.9887,23.9952 77.6554,25.3285 78.5,26.5C 79.1667,26.5 79.5,26.8333 79.5,27.5C 80.0283,28.7206 80.695,29.8873 81.5,31C 85.4423,31.9929 89.4423,32.6596 93.5,33C 98.453,36.365 100.12,40.865 98.5,46.5C 97.8333,46.5 97.5,46.8333 97.5,47.5C 96.6618,47.8417 96.3284,48.5084 96.5,49.5C 95.8333,49.5 95.5,49.8333 95.5,50.5C 94.8333,50.5 94.5,50.8333 94.5,51.5C 93.8529,52.2739 93.5195,53.2739 93.5,54.5C 94.3296,58.1486 94.9963,61.8153 95.5,65.5C 94.6618,65.8417 94.3284,66.5084 94.5,67.5C 93.6618,67.8417 93.3284,68.5084 93.5,69.5C 92.8333,69.5 92.5,69.8333 92.5,70.5C 91.8333,70.5 91.5,70.8333 91.5,71.5C 90.5084,71.3284 89.8417,71.6618 89.5,72.5C 84.3844,72.569 79.3844,71.9024 74.5,70.5C 78.6552,70.0395 82.9885,69.8729 87.5,70C 90.4307,68.4764 92.4307,66.1431 93.5,63C 92.3044,58.1595 92.3044,53.3262 93.5,48.5C 98.3958,44.7227 98.7292,40.5561 94.5,36C 89.9491,34.7852 85.2824,34.1186 80.5,34C 79.1667,33.3333 78.1667,32.3333 77.5,31C 78.694,28.3422 77.694,27.1756 74.5,27.5C 74.5,26.1667 74.5,24.8333 74.5,23.5C 71.1606,23.8897 67.8273,24.3897 64.5,25C 63.8366,26.5185 62.8366,27.6851 61.5,28.5C 64.1,20.7041 69.1,18.7041 76.5,22.5 Z"/></g>
<g><path style="opacity:0.004" fill="#000000" d="M 96.5,65.5 C 96.3433,64.1266 96.51,62.7932 97,61.5C 97.765,63.0657 97.5983,64.3991 96.5,65.5 Z"/></g>
<g><path style="opacity:0.012" fill="#370900" d="M 53.5,58.5 C 53.6655,62.5138 53.4988,66.5138 53,70.5C 52.1881,66.3112 52.3547,62.3112 53.5,58.5 Z"/></g>
<g><path style="opacity:0.008" fill="#560d01" d="M 95.5,65.5 C 95.8333,65.5 96.1667,65.5 96.5,65.5C 96.6716,66.4916 96.3382,67.1583 95.5,67.5C 95.5,66.8333 95.5,66.1667 95.5,65.5 Z"/></g>
<g><path style="opacity:0.004" fill="#000000" d="M 94.5,67.5 C 94.8333,67.5 95.1667,67.5 95.5,67.5C 95.6716,68.4916 95.3382,69.1583 94.5,69.5C 94.5,68.8333 94.5,68.1667 94.5,67.5 Z"/></g>
<g><path style="opacity:0.008" fill="#000000" d="M 305.5,68.5 C 306.833,69.1667 306.833,69.1667 305.5,68.5 Z"/></g>
<g><path style="opacity:0.008" fill="#7f0000" d="M 93.5,69.5 C 93.8333,69.5 94.1667,69.5 94.5,69.5C 94.3147,70.1701 93.9813,70.1701 93.5,69.5 Z"/></g>
<g><path style="opacity:0.008" fill="#7f0000" d="M 304.5,69.5 C 304.833,69.5 305.167,69.5 305.5,69.5C 305.315,70.1701 304.981,70.1701 304.5,69.5 Z"/></g>
<g><path style="opacity:0.008" fill="#7f0000" d="M 92.5,70.5 C 92.8333,70.5 93.1667,70.5 93.5,70.5C 93.3147,71.1701 92.9813,71.1701 92.5,70.5 Z"/></g>
<g><path style="opacity:0.008" fill="#4d2307" d="M 155.5,71.5 C 157.288,70.3775 159.288,70.2109 161.5,71C 159.527,71.4955 157.527,71.6621 155.5,71.5 Z"/></g>
<g><path style="opacity:0.008" fill="#7f0000" d="M 303.5,70.5 C 303.833,70.5 304.167,70.5 304.5,70.5C 304.315,71.1701 303.981,71.1701 303.5,70.5 Z"/></g>
<g><path style="opacity:0.008" fill="#7f0000" d="M 91.5,71.5 C 91.8333,71.5 92.1667,71.5 92.5,71.5C 92.3147,72.1701 91.9813,72.1701 91.5,71.5 Z"/></g>
<g><path style="opacity:0.012" fill="#452408" d="M 151.5,72.5 C 152.568,71.5655 153.901,71.2322 155.5,71.5C 154.432,72.4345 153.099,72.7678 151.5,72.5 Z"/></g>
<g><path style="opacity:0.482" fill="#503326" d="M 298.5,45.5 C 301.81,47.1464 304.477,49.4797 306.5,52.5C 306.979,55.0644 307.645,57.5644 308.5,60C 307.577,62.8595 306.577,65.6929 305.5,68.5C 304.833,68.5 304.5,68.8333 304.5,69.5C 303.833,69.5 303.5,69.8333 303.5,70.5C 302.508,70.3284 301.842,70.6618 301.5,71.5C 300.508,71.3284 299.842,71.6618 299.5,72.5C 298.508,72.3284 297.842,72.6618 297.5,73.5C 296.508,73.3284 295.842,73.6618 295.5,74.5C 294.508,74.3284 293.842,74.6618 293.5,75.5C 292.508,75.3284 291.842,75.6618 291.5,76.5C 290.508,76.3284 289.842,76.6618 289.5,77.5C 287.447,77.4021 285.78,78.0687 284.5,79.5C 283.508,79.3284 282.842,79.6618 282.5,80.5C 281.508,80.3284 280.842,80.6618 280.5,81.5C 279.833,81.5 279.5,81.8333 279.5,82.5C 278.566,83.5676 278.232,84.901 278.5,86.5C 277.596,87.209 277.263,88.209 277.5,89.5C 276.596,90.209 276.263,91.209 276.5,92.5C 276.167,92.5 275.833,92.5 275.5,92.5C 274.963,87.7533 275.963,83.4199 278.5,79.5C 285.919,76.6259 293.253,73.4593 300.5,70C 301.667,68.8333 302.833,67.6667 304,66.5C 307.502,57.284 305.002,50.4507 296.5,46C 297.094,45.5357 297.761,45.369 298.5,45.5 Z"/></g>
<g><path style="opacity:0.004" fill="#000000" d="M 301.5,72.5 C 301.5,72.1667 301.5,71.8333 301.5,71.5C 302.167,71.5 302.833,71.5 303.5,71.5C 303.158,72.3382 302.492,72.6716 301.5,72.5 Z"/></g>
<g><path style="opacity:0.008" fill="#7f0000" d="M 72.5,72.5 C 73.8333,73.1667 73.8333,73.1667 72.5,72.5 Z"/></g>
<g><path style="opacity:0.004" fill="#000000" d="M 89.5,73.5 C 89.5,73.1667 89.5,72.8333 89.5,72.5C 90.1667,72.5 90.8333,72.5 91.5,72.5C 91.1583,73.3382 90.4916,73.6716 89.5,73.5 Z"/></g>
<g><path style="opacity:0.012" fill="#545500" d="M 151.5,72.5 C 150.833,73.1667 150.833,73.1667 151.5,72.5 Z"/></g>
<g><path style="opacity:0.004" fill="#240800" d="M 70.5,74.5 C 70.5,74.1667 70.5,73.8333 70.5,73.5C 71.1667,73.5 71.8333,73.5 72.5,73.5C 72.1583,74.3382 71.4916,74.6716 70.5,74.5 Z"/></g>
<g><path style="opacity:0.008" fill="#260c00" d="M 89.5,73.5 C 87.0336,74.6341 84.367,74.8007 81.5,74C 84.146,73.5026 86.8127,73.3359 89.5,73.5 Z"/></g>
<g><path style="opacity:0.008" fill="#7f8000" d="M 148.5,73.5 C 149.833,74.1667 149.833,74.1667 148.5,73.5 Z"/></g>
<g><path style="opacity:0.008" fill="#430f01" d="M 299.5,72.5 C 300.167,72.5 300.833,72.5 301.5,72.5C 300.713,74.1042 299.38,74.7709 297.5,74.5C 297.5,74.1667 297.5,73.8333 297.5,73.5C 298.492,73.6716 299.158,73.3382 299.5,72.5 Z"/></g>
<g><path style="opacity:0.008" fill="#560d01" d="M 68.5,75.5 C 68.5,75.1667 68.5,74.8333 68.5,74.5C 69.1667,74.5 69.8333,74.5 70.5,74.5C 70.1583,75.3382 69.4916,75.6716 68.5,75.5 Z"/></g>
<g><path style="opacity:0.006" fill="#000000" d="M 295.5,75.5 C 295.5,75.1667 295.5,74.8333 295.5,74.5C 296.167,74.5 296.833,74.5 297.5,74.5C 297.158,75.3382 296.492,75.6716 295.5,75.5 Z"/></g>
<g><path style="opacity:0.008" fill="#7f0000" d="M 67.5,75.5 C 67.8333,75.5 68.1667,75.5 68.5,75.5C 68.3147,76.1701 67.9813,76.1701 67.5,75.5 Z"/></g>
<g><path style="opacity:0.005" fill="#000000" d="M 170.5,76.5 C 171.497,75.2875 172.497,75.4542 173.5,77C 172.906,77.4643 172.239,77.631 171.5,77.5C 171.5,76.8333 171.167,76.5 170.5,76.5 Z"/></g>
<g><path style="opacity:0.004" fill="#1f0900" d="M 194.5,77.5 C 193.167,78.1667 193.167,78.8333 194.5,79.5C 194.5,80.8333 194.5,82.1667 194.5,83.5C 192.076,80.3958 191.909,77.0625 194,73.5C 194.49,74.7932 194.657,76.1266 194.5,77.5 Z"/></g>
<g><path style="opacity:0.004" fill="#2f0e01" d="M 293.5,76.5 C 293.5,76.1667 293.5,75.8333 293.5,75.5C 294.167,75.5 294.833,75.5 295.5,75.5C 295.158,76.3382 294.492,76.6716 293.5,76.5 Z"/></g>
<g><path style="opacity:0.012" fill="#372421" d="M 67.5,76.5 C 65.0336,77.6341 62.367,77.8007 59.5,77C 62.146,76.5026 64.8127,76.3359 67.5,76.5 Z"/></g>
<g><path style="opacity:0.004" fill="#240800" d="M 291.5,77.5 C 291.5,77.1667 291.5,76.8333 291.5,76.5C 292.167,76.5 292.833,76.5 293.5,76.5C 293.158,77.3382 292.492,77.6716 291.5,77.5 Z"/></g>
<g><path style="opacity:0.004" fill="#2f0e01" d="M 289.5,78.5 C 289.5,78.1667 289.5,77.8333 289.5,77.5C 290.167,77.5 290.833,77.5 291.5,77.5C 291.158,78.3382 290.492,78.6716 289.5,78.5 Z"/></g>
<g><path style="opacity:0.004" fill="#240800" d="M 289.5,78.5 C 289.103,79.525 288.437,79.6917 287.5,79C 288.094,78.5357 288.761,78.369 289.5,78.5 Z"/></g>
<g><path style="opacity:0.008" fill="#560d01" d="M 284.5,80.5 C 284.5,80.1667 284.5,79.8333 284.5,79.5C 287.167,79.8333 287.167,80.1667 284.5,80.5 Z"/></g>
<g><path style="opacity:0.008" fill="#560d01" d="M 282.5,81.5 C 282.5,81.1667 282.5,80.8333 282.5,80.5C 283.167,80.5 283.833,80.5 284.5,80.5C 284.158,81.3382 283.492,81.6716 282.5,81.5 Z"/></g>
<g><path style="opacity:0.006" fill="#280c00" d="M 280.5,81.5 C 281.167,81.5 281.833,81.5 282.5,81.5C 281.308,83.1131 280.308,84.7798 279.5,86.5C 279.5,85.1667 279.5,83.8333 279.5,82.5C 280.167,82.5 280.5,82.1667 280.5,81.5 Z"/></g>
<g><path style="opacity:0.008" fill="#560d01" d="M 194.5,83.5 C 194.833,83.5 195.167,83.5 195.5,83.5C 195.167,86.1667 194.833,86.1667 194.5,83.5 Z"/></g>
<g><path style="opacity:1" fill="#fee649" d="M 166.5,86.5 C 170.992,96.8176 175.992,106.818 181.5,116.5C 181.878,118.921 182.545,121.254 183.5,123.5C 183.624,125.582 184.624,127.082 186.5,128C 191.484,129.33 196.484,130.496 201.5,131.5C 206.563,133.92 211.896,136.087 217.5,138C 226.336,137.716 230.669,141.883 230.5,150.5C 220.167,161.167 209.833,171.833 199.5,182.5C 198.951,197.395 198.118,212.395 197,227.5C 193.325,230.318 189.825,230.151 186.5,227C 183.522,226.304 180.522,225.804 177.5,225.5C 170.504,222.337 163.838,218.671 157.5,214.5C 157.586,213.504 157.252,212.671 156.5,212C 154.091,211.065 151.591,210.565 149,210.5C 139.636,212.783 130.803,216.116 122.5,220.5C 116.401,224.858 109.734,226.024 102.5,224C 101.695,222.887 101.028,221.721 100.5,220.5C 100.337,218.143 100.503,215.81 101,213.5C 103.519,211.773 105.353,208.94 106.5,205C 103.799,198.867 103.965,192.033 107,184.5C 108.968,188.281 110.135,187.781 110.5,183C 110.333,182.167 110.167,181.333 110,180.5C 109.581,181.672 108.915,182.672 108,183.5C 107.91,178.304 108.41,173.137 109.5,168C 108.464,166.099 107.298,164.265 106,162.5C 106.153,165.174 106.653,167.84 107.5,170.5C 106.5,170.5 105.5,170.5 104.5,170.5C 103.94,166.875 102.606,163.541 100.5,160.5C 98.9291,159.691 97.2624,159.357 95.5,159.5C 90.8639,154.021 86.3639,148.354 82,142.5C 77.6069,133.953 80.1069,128.953 89.5,127.5C 96.7363,127.235 103.736,126.235 110.5,124.5C 116.336,123.178 122.336,122.012 128.5,121C 136.922,108.823 145.588,96.8233 154.5,85C 156.034,84.077 157.701,83.577 159.5,83.5C 162.046,84.0567 164.379,85.0567 166.5,86.5 Z"/></g>
<g><path style="opacity:0.004" fill="#260c00" d="M 278.5,86.5 C 278.833,86.5 279.167,86.5 279.5,86.5C 279.737,87.791 279.404,88.791 278.5,89.5C 278.5,88.5 278.5,87.5 278.5,86.5 Z"/></g>
<g><path style="opacity:0.008" fill="#403f0f" d="M 277.5,89.5 C 277.833,89.5 278.167,89.5 278.5,89.5C 278.737,90.791 278.404,91.791 277.5,92.5C 277.5,91.5 277.5,90.5 277.5,89.5 Z"/></g>
<g><path style="opacity:0.008" fill="#600c01" d="M 276.5,92.5 C 276.833,92.5 277.167,92.5 277.5,92.5C 277.737,93.791 277.404,94.791 276.5,95.5C 276.5,94.5 276.5,93.5 276.5,92.5 Z"/></g>
<g><path style="opacity:0.008" fill="#600c01" d="M 206.5,93.5 C 206.5,93.8333 206.5,94.1667 206.5,94.5C 202.5,94.1667 202.5,93.8333 206.5,93.5 Z"/></g>
<g><path style="opacity:0.004" fill="#270c00" d="M 206.5,94.5 C 214.174,94.3336 221.841,94.5003 229.5,95C 221.655,95.8223 213.989,95.6557 206.5,94.5 Z"/></g>
<g><path style="opacity:0.012" fill="#2d2c09" d="M 275.5,95.5 C 275.833,95.5 276.167,95.5 276.5,95.5C 276.737,96.791 276.404,97.791 275.5,98.5C 275.5,97.5 275.5,96.5 275.5,95.5 Z"/></g>
<g><path style="opacity:0.008" fill="#600c01" d="M 274.5,98.5 C 274.833,98.5 275.167,98.5 275.5,98.5C 275.737,99.791 275.404,100.791 274.5,101.5C 274.5,100.5 274.5,99.5 274.5,98.5 Z"/></g>
<g><path style="opacity:0.012" fill="#2d2c09" d="M 273.5,101.5 C 273.833,101.5 274.167,101.5 274.5,101.5C 274.737,102.791 274.404,103.791 273.5,104.5C 273.5,103.5 273.5,102.5 273.5,101.5 Z"/></g>
<g><path style="opacity:0.007" fill="#000000" d="M 243.5,104.5 C 244.167,104.5 244.5,104.833 244.5,105.5C 244.5,105.833 244.5,106.167 244.5,106.5C 242.576,106.289 242.243,105.623 243.5,104.5 Z"/></g>
<g><path style="opacity:0.008" fill="#7f0000" d="M 272.5,104.5 C 272.833,104.5 273.167,104.5 273.5,104.5C 273.672,105.492 273.338,106.158 272.5,106.5C 272.5,105.833 272.5,105.167 272.5,104.5 Z"/></g>
<g><path style="opacity:0.006" fill="#000000" d="M 244.5,106.5 C 244.833,106.5 245.167,106.5 245.5,106.5C 246.167,106.5 246.5,106.833 246.5,107.5C 247.167,107.5 247.5,107.833 247.5,108.5C 248.167,108.5 248.5,108.833 248.5,109.5C 246.275,110.332 244.942,109.332 244.5,106.5 Z"/></g>
<g><path style="opacity:0.012" fill="#545500" d="M 271.5,106.5 C 271.833,106.5 272.167,106.5 272.5,106.5C 272.315,107.17 271.981,107.17 271.5,106.5 Z"/></g>
<g><path style="opacity:0.005" fill="#201002" d="M 122.5,110.5 C 121.508,110.328 120.842,110.662 120.5,111.5C 117.813,111.664 115.146,111.497 112.5,111C 115.903,110.9 119.07,110.066 122,108.5C 122.464,109.094 122.631,109.761 122.5,110.5 Z"/></g>
<g><path style="opacity:1" fill="#5c341a" d="M 170.5,76.5 C 171.167,76.5 171.5,76.8333 171.5,77.5C 173.134,78.9717 174.634,80.6383 176,82.5C 181.608,94.0511 187.441,105.384 193.5,116.5C 195.599,117.612 197.933,118.279 200.5,118.5C 200.5,118.833 200.5,119.167 200.5,119.5C 202.297,120.393 203.63,121.726 204.5,123.5C 204.141,125.831 203.474,125.665 202.5,123C 199.111,123.187 195.778,123.021 192.5,122.5C 192.97,118.812 191.304,116.146 187.5,114.5C 187.264,115.247 186.93,116.08 186.5,117C 185.5,117.667 184.5,117.667 183.5,117C 183.07,116.08 182.736,115.247 182.5,114.5C 181.702,114.957 181.369,115.624 181.5,116.5C 175.992,106.818 170.992,96.8176 166.5,86.5C 168.053,84.5962 169.053,82.7629 169.5,81C 168.5,80.6667 167.5,80.3333 166.5,80C 163.274,74.3545 158.608,73.0211 152.5,76C 151.271,77.5292 149.771,78.6959 148,79.5C 147.51,80.7932 147.343,82.1266 147.5,83.5C 141.779,84.8703 138.279,88.537 137,94.5C 136,95.1667 135,95.8333 134,96.5C 131.189,102.149 127.689,107.315 123.5,112C 120.867,113.256 118.201,114.423 115.5,115.5C 106.192,116.864 96.859,118.031 87.5,119C 86.1667,120 86.1667,121 87.5,122C 79.4688,120.658 74.6355,124.158 73,132.5C 72.4657,136.859 72.6324,141.192 73.5,145.5C 68.5731,136.127 70.2397,127.96 78.5,121C 81.2813,120.478 83.6146,119.311 85.5,117.5C 97.149,115.392 108.816,113.392 120.5,111.5C 121.492,111.672 122.158,111.338 122.5,110.5C 130.268,99.8212 137.934,88.9878 145.5,78C 153.527,71.4886 161.86,70.9886 170.5,76.5 Z"/></g>
<g><path style="opacity:0.012" fill="#540000" d="M 266.5,111.5 C 267.833,112.167 267.833,112.167 266.5,111.5 Z"/></g>
<g><path style="opacity:0.008" fill="#560d01" d="M 264.5,113.5 C 264.5,113.167 264.5,112.833 264.5,112.5C 265.167,112.5 265.833,112.5 266.5,112.5C 266.158,113.338 265.492,113.672 264.5,113.5 Z"/></g>
<g><path style="opacity:0.008" fill="#54530d" d="M 262.5,114.5 C 262.5,114.167 262.5,113.833 262.5,113.5C 263.167,113.5 263.833,113.5 264.5,113.5C 264.158,114.338 263.492,114.672 262.5,114.5 Z"/></g>
<g><path style="opacity:0.008" fill="#6b0901" d="M 254.5,113.5 C 256.948,114.473 259.615,114.806 262.5,114.5C 259.696,115.638 256.696,115.805 253.5,115C 252.288,113.893 252.621,113.393 254.5,113.5 Z"/></g>
<g><path style="opacity:0.008" fill="#833c01" d="M 82.5,116.5 C 82.8966,115.475 83.5632,115.308 84.5,116C 83.9056,116.464 83.2389,116.631 82.5,116.5 Z"/></g>
<g><path style="opacity:0.004" fill="#48311e" d="M 193.5,116.5 C 193.696,114.354 194.696,114.188 196.5,116C 195.552,116.483 194.552,116.649 193.5,116.5 Z"/></g>
<g><path style="opacity:0.008" fill="#3f3f3f" d="M 200.5,118.5 C 201.251,117.427 202.251,117.26 203.5,118C 202.552,118.483 201.552,118.649 200.5,118.5 Z"/></g>
<g><path style="opacity:0.008" fill="#624709" d="M 204.5,119.5 C 205.251,118.427 206.251,118.26 207.5,119C 206.552,119.483 205.552,119.649 204.5,119.5 Z"/></g>
<g><path style="opacity:0.005" fill="#000000" d="M 75.5,121.5 C 74.8333,121.5 74.5,121.833 74.5,122.5C 73.8333,122.5 73.5,122.833 73.5,123.5C 72.475,123.103 72.3083,122.437 73,121.5C 73.9772,120.226 74.8106,120.226 75.5,121.5 Z"/></g>
<g><path style="opacity:0.004" fill="#2d1711" d="M 220.5,124.5 C 222.435,123.291 224.435,123.458 226.5,125C 225.552,125.483 224.552,125.649 223.5,125.5C 222.791,124.596 221.791,124.263 220.5,124.5 Z"/></g>
<g><path style="opacity:0.008" fill="#54530d" d="M 229.5,126.5 C 228.761,126.631 228.094,126.464 227.5,126C 228.437,125.308 229.103,125.475 229.5,126.5 Z"/></g>
<g><path style="opacity:0.008" fill="#560d01" d="M 229.5,127.5 C 229.5,127.167 229.5,126.833 229.5,126.5C 232.167,126.833 232.167,127.167 229.5,127.5 Z"/></g>
<g><path style="opacity:0.008" fill="#7f0000" d="M 232.5,127.5 C 233.833,128.167 233.833,128.167 232.5,127.5 Z"/></g>
<g><path style="opacity:0.906" fill="#533727" d="M 200.5,119.5 C 207.167,121.167 213.833,122.833 220.5,124.5C 221.209,125.404 222.209,125.737 223.5,125.5C 225.214,126.738 227.214,127.405 229.5,127.5C 240.2,132.888 244.2,141.555 241.5,153.5C 240.662,153.842 240.328,154.508 240.5,155.5C 239.833,155.5 239.5,155.833 239.5,156.5C 239.167,156.5 238.833,156.5 238.5,156.5C 243.818,141.971 239.152,132.471 224.5,128C 217.726,126.806 211.059,125.306 204.5,123.5C 203.63,121.726 202.297,120.393 200.5,119.5 Z"/></g>
<g><path style="opacity:0.008" fill="#420f01" d="M 69.5,142.5 C 69.6495,143.552 69.4828,144.552 69,145.5C 68.2599,144.251 68.4265,143.251 69.5,142.5 Z"/></g>
<g><path style="opacity:0.008" fill="#675709" d="M 243.5,142.5 C 244.629,144.628 244.796,146.961 244,149.5C 243.503,147.19 243.337,144.857 243.5,142.5 Z"/></g>
<g><path style="opacity:0.008" fill="#560d01" d="M 71.5,146.5 C 71.631,147.239 71.4643,147.906 71,148.5C 70.3083,147.563 70.475,146.897 71.5,146.5 Z"/></g>
<g><path style="opacity:0.008" fill="#600c01" d="M 242.5,153.5 C 242.351,152.448 242.517,151.448 243,150.5C 243.74,151.749 243.573,152.749 242.5,153.5 Z"/></g>
<g><path style="opacity:0.006" fill="#000000" d="M 241.5,153.5 C 241.833,153.5 242.167,153.5 242.5,153.5C 242.672,154.492 242.338,155.158 241.5,155.5C 241.5,154.833 241.5,154.167 241.5,153.5 Z"/></g>
<g><path style="opacity:0.008" fill="#000000" d="M 240.5,155.5 C 240.833,155.5 241.167,155.5 241.5,155.5C 241.315,156.17 240.981,156.17 240.5,155.5 Z"/></g>
<g><path style="opacity:0.006" fill="#000000" d="M 239.5,156.5 C 239.833,156.5 240.167,156.5 240.5,156.5C 240.672,157.492 240.338,158.158 239.5,158.5C 239.5,157.833 239.5,157.167 239.5,156.5 Z"/></g>
<g><path style="opacity:0.008" fill="#7f0000" d="M 238.5,158.5 C 238.833,158.5 239.167,158.5 239.5,158.5C 239.315,159.17 238.981,159.17 238.5,158.5 Z"/></g>
<g><path style="opacity:0.008" fill="#7f0000" d="M 237.5,159.5 C 237.833,159.5 238.167,159.5 238.5,159.5C 238.315,160.17 237.981,160.17 237.5,159.5 Z"/></g>
<g><path style="opacity:0.008" fill="#000000" d="M 236.5,160.5 C 236.833,160.5 237.167,160.5 237.5,160.5C 237.315,161.17 236.981,161.17 236.5,160.5 Z"/></g>
<g><path style="opacity:0.012" fill="#540000" d="M 235.5,161.5 C 235.833,161.5 236.167,161.5 236.5,161.5C 236.315,162.17 235.981,162.17 235.5,161.5 Z"/></g>
<g><path style="opacity:0.012" fill="#540000" d="M 234.5,162.5 C 234.833,162.5 235.167,162.5 235.5,162.5C 235.315,163.17 234.981,163.17 234.5,162.5 Z"/></g>
<g><path style="opacity:0.012" fill="#545500" d="M 233.5,163.5 C 233.833,163.5 234.167,163.5 234.5,163.5C 234.315,164.17 233.981,164.17 233.5,163.5 Z"/></g>
<g><path style="opacity:0.012" fill="#540000" d="M 232.5,164.5 C 232.833,164.5 233.167,164.5 233.5,164.5C 233.315,165.17 232.981,165.17 232.5,164.5 Z"/></g>
<g><path style="opacity:0.008" fill="#7f0000" d="M 231.5,165.5 C 231.833,165.5 232.167,165.5 232.5,165.5C 232.315,166.17 231.981,166.17 231.5,165.5 Z"/></g>
<g><path style="opacity:0.008" fill="#7f0000" d="M 230.5,166.5 C 230.833,166.5 231.167,166.5 231.5,166.5C 231.315,167.17 230.981,167.17 230.5,166.5 Z"/></g>
<g><path style="opacity:1" fill="#4f3323" d="M 237.5,158.5 C 237.5,158.833 237.5,159.167 237.5,159.5C 236.833,159.5 236.5,159.833 236.5,160.5C 235.833,160.5 235.5,160.833 235.5,161.5C 234.833,161.5 234.5,161.833 234.5,162.5C 233.833,162.5 233.5,162.833 233.5,163.5C 232.833,163.5 232.5,163.833 232.5,164.5C 231.833,164.5 231.5,164.833 231.5,165.5C 230.833,165.5 230.5,165.833 230.5,166.5C 229.833,166.5 229.5,166.833 229.5,167.5C 228.833,167.5 228.5,167.833 228.5,168.5C 227.833,168.5 227.5,168.833 227.5,169.5C 226.833,169.5 226.5,169.833 226.5,170.5C 225.833,170.5 225.5,170.833 225.5,171.5C 224.833,171.5 224.5,171.833 224.5,172.5C 223.833,172.5 223.5,172.833 223.5,173.5C 222.833,173.5 222.5,173.833 222.5,174.5C 221.833,174.5 221.5,174.833 221.5,175.5C 220.833,175.5 220.5,175.833 220.5,176.5C 219.833,176.5 219.5,176.833 219.5,177.5C 218.833,177.5 218.5,177.833 218.5,178.5C 217.833,178.5 217.5,178.833 217.5,179.5C 215.246,180.124 213.579,181.457 212.5,183.5C 211.833,183.5 211.5,183.833 211.5,184.5C 210.788,200.026 210.122,215.692 209.5,231.5C 208.662,231.842 208.328,232.508 208.5,233.5C 207.833,233.5 207.5,233.833 207.5,234.5C 206.474,235.853 205.141,236.853 203.5,237.5C 204.707,234.394 206.207,231.394 208,228.5C 208.333,213.833 208.667,199.167 209,184.5C 214.277,179.898 218.777,174.731 222.5,169C 225.582,167.128 228.249,164.795 230.5,162C 232.886,160.807 235.22,159.64 237.5,158.5 Z"/></g>
<g><path style="opacity:0.008" fill="#7f0000" d="M 229.5,167.5 C 229.833,167.5 230.167,167.5 230.5,167.5C 230.315,168.17 229.981,168.17 229.5,167.5 Z"/></g>
<g><path style="opacity:0.012" fill="#540000" d="M 228.5,168.5 C 228.833,168.5 229.167,168.5 229.5,168.5C 229.315,169.17 228.981,169.17 228.5,168.5 Z"/></g>
<g><path style="opacity:0.008" fill="#7f0000" d="M 227.5,169.5 C 227.833,169.5 228.167,169.5 228.5,169.5C 228.315,170.17 227.981,170.17 227.5,169.5 Z"/></g>
<g><path style="opacity:0.008" fill="#7f0000" d="M 226.5,170.5 C 226.833,170.5 227.167,170.5 227.5,170.5C 227.315,171.17 226.981,171.17 226.5,170.5 Z"/></g>
<g><path style="opacity:0.008" fill="#7f0000" d="M 225.5,171.5 C 225.833,171.5 226.167,171.5 226.5,171.5C 226.315,172.17 225.981,172.17 225.5,171.5 Z"/></g>
<g><path style="opacity:0.224" fill="#54382a" d="M 85.5,117.5 C 83.6146,119.311 81.2813,120.478 78.5,121C 70.2397,127.96 68.5731,136.127 73.5,145.5C 76.3677,150.876 80.2011,155.543 85,159.5C 87.9069,165.644 91.5735,171.311 96,176.5C 94.6811,189.756 92.8478,202.922 90.5,216C 90.3768,224.437 94.0434,230.437 101.5,234C 103.667,234.167 105.833,234.333 108,234.5C 114.506,233.278 121.006,231.945 127.5,230.5C 127.5,230.833 127.5,231.167 127.5,231.5C 126.209,231.263 125.209,231.596 124.5,232.5C 121.458,232.733 118.792,233.733 116.5,235.5C 115.209,235.263 114.209,235.596 113.5,236.5C 100.634,237.917 92.3006,232.583 88.5,220.5C 90.0272,206.171 92.3605,192.004 95.5,178C 87.6365,167.315 79.6365,156.815 71.5,146.5C 71.0113,145.005 70.3446,143.671 69.5,142.5C 67.8291,135.519 69.1625,129.186 73.5,123.5C 74.1667,123.5 74.5,123.167 74.5,122.5C 75.1667,122.5 75.5,122.167 75.5,121.5C 78.3739,119.065 81.7073,117.731 85.5,117.5 Z"/></g>
<g><path style="opacity:0.008" fill="#7f0000" d="M 224.5,172.5 C 224.833,172.5 225.167,172.5 225.5,172.5C 225.315,173.17 224.981,173.17 224.5,172.5 Z"/></g>
<g><path style="opacity:0.008" fill="#7f0000" d="M 223.5,173.5 C 223.833,173.5 224.167,173.5 224.5,173.5C 224.315,174.17 223.981,174.17 223.5,173.5 Z"/></g>
<g><path style="opacity:0.008" fill="#7f0000" d="M 222.5,174.5 C 222.833,174.5 223.167,174.5 223.5,174.5C 223.315,175.17 222.981,175.17 222.5,174.5 Z"/></g>
<g><path style="opacity:0.008" fill="#7f0000" d="M 221.5,175.5 C 221.833,175.5 222.167,175.5 222.5,175.5C 222.315,176.17 221.981,176.17 221.5,175.5 Z"/></g>
<g><path style="opacity:0.008" fill="#7f0000" d="M 220.5,176.5 C 220.833,176.5 221.167,176.5 221.5,176.5C 221.315,177.17 220.981,177.17 220.5,176.5 Z"/></g>
<g><path style="opacity:0.008" fill="#7f0000" d="M 219.5,177.5 C 219.833,177.5 220.167,177.5 220.5,177.5C 220.315,178.17 219.981,178.17 219.5,177.5 Z"/></g>
<g><path style="opacity:0.008" fill="#7f0000" d="M 218.5,178.5 C 218.833,178.5 219.167,178.5 219.5,178.5C 219.315,179.17 218.981,179.17 218.5,178.5 Z"/></g>
<g><path style="opacity:0.008" fill="#000000" d="M 217.5,179.5 C 217.833,179.5 218.167,179.5 218.5,179.5C 218.315,180.17 217.981,180.17 217.5,179.5 Z"/></g>
<g><path style="opacity:0.004" fill="#000000" d="M 212.5,183.5 C 214.657,184.053 214.49,185.053 212,186.5C 211.536,185.906 211.369,185.239 211.5,184.5C 212.167,184.5 212.5,184.167 212.5,183.5 Z"/></g>
<g><path style="opacity:0.012" fill="#4b0900" d="M 211.5,190.5 C 212.66,202.993 212.827,215.66 212,228.5C 211.5,215.838 211.333,203.171 211.5,190.5 Z"/></g>
<g><path style="opacity:0.012" fill="#662505" d="M 35.5,212.5 C 36.9464,211.387 38.6131,211.22 40.5,212C 38.8659,212.494 37.1992,212.66 35.5,212.5 Z"/></g>
<g><path style="opacity:1" fill="#5f3416" d="M 166.5,86.5 C 164.379,85.0567 162.046,84.0567 159.5,83.5C 157.701,83.577 156.034,84.077 154.5,85C 145.588,96.8233 136.922,108.823 128.5,121C 122.336,122.012 116.336,123.178 110.5,124.5C 103.251,124.678 96.2508,125.678 89.5,127.5C 80.1069,128.953 77.6069,133.953 82,142.5C 86.3639,148.354 90.8639,154.021 95.5,159.5C 99.3946,164.886 103.061,170.386 106.5,176C 103.956,187.762 101.79,199.595 100,211.5C 99.1955,214.696 99.3622,217.696 100.5,220.5C 101.028,221.721 101.695,222.887 102.5,224C 109.734,226.024 116.401,224.858 122.5,220.5C 131.723,217.803 140.889,214.803 150,211.5C 152.423,212.626 154.923,213.626 157.5,214.5C 163.838,218.671 170.504,222.337 177.5,225.5C 182.645,230.149 188.645,231.982 195.5,231C 196.667,229.833 197.833,228.667 199,227.5C 199.5,212.504 199.667,197.504 199.5,182.5C 209.833,171.833 220.167,161.167 230.5,150.5C 232.448,145.99 231.448,142.156 227.5,139C 219.125,135.687 210.458,133.187 201.5,131.5C 196.805,129.167 191.805,127.334 186.5,126C 185.627,124.955 184.627,124.122 183.5,123.5C 182.545,121.254 181.878,118.921 181.5,116.5C 181.369,115.624 181.702,114.957 182.5,114.5C 182.736,115.247 183.07,116.08 183.5,117C 184.5,117.667 185.5,117.667 186.5,117C 186.93,116.08 187.264,115.247 187.5,114.5C 191.304,116.146 192.97,118.812 192.5,122.5C 195.778,123.021 199.111,123.187 202.5,123C 203.474,125.665 204.141,125.831 204.5,123.5C 211.059,125.306 217.726,126.806 224.5,128C 239.152,132.471 243.818,141.971 238.5,156.5C 238.5,157.167 238.5,157.833 238.5,158.5C 238.167,158.5 237.833,158.5 237.5,158.5C 235.22,159.64 232.886,160.807 230.5,162C 228.249,164.795 225.582,167.128 222.5,169C 218.777,174.731 214.277,179.898 209,184.5C 208.667,199.167 208.333,213.833 208,228.5C 206.207,231.394 204.707,234.394 203.5,237.5C 203.167,238.167 202.833,238.833 202.5,239.5C 200.973,239.427 199.973,240.094 199.5,241.5C 198.209,241.263 197.209,241.596 196.5,242.5C 193.15,242.665 189.817,242.498 186.5,242C 180.145,239.155 173.812,236.321 167.5,233.5C 166.341,231.75 164.674,230.75 162.5,230.5C 158.281,227.806 153.781,225.473 149,223.5C 147.541,223.808 146.374,224.475 145.5,225.5C 144.209,225.263 143.209,225.596 142.5,226.5C 141.209,226.263 140.209,226.596 139.5,227.5C 138.209,227.263 137.209,227.596 136.5,228.5C 135.209,228.263 134.209,228.596 133.5,229.5C 132.209,229.263 131.209,229.596 130.5,230.5C 129.5,230.5 128.5,230.5 127.5,230.5C 121.006,231.945 114.506,233.278 108,234.5C 105.833,234.333 103.667,234.167 101.5,234C 94.0434,230.437 90.3768,224.437 90.5,216C 92.8478,202.922 94.6811,189.756 96,176.5C 91.5735,171.311 87.9069,165.644 85,159.5C 80.2011,155.543 76.3677,150.876 73.5,145.5C 72.6324,141.192 72.4657,136.859 73,132.5C 74.6355,124.158 79.4688,120.658 87.5,122C 86.1667,121 86.1667,120 87.5,119C 96.859,118.031 106.192,116.864 115.5,115.5C 118.201,114.423 120.867,113.256 123.5,112C 127.689,107.315 131.189,102.149 134,96.5C 135,95.8333 136,95.1667 137,94.5C 138.279,88.537 141.779,84.8703 147.5,83.5C 147.343,82.1266 147.51,80.7932 148,79.5C 149.771,78.6959 151.271,77.5292 152.5,76C 158.608,73.0211 163.274,74.3545 166.5,80C 167.5,80.3333 168.5,80.6667 169.5,81C 169.053,82.7629 168.053,84.5962 166.5,86.5 Z"/></g>
<g><path style="opacity:1" fill="#efd45a" d="M 157.5,214.5 C 154.923,213.626 152.423,212.626 150,211.5C 140.889,214.803 131.723,217.803 122.5,220.5C 130.803,216.116 139.636,212.783 149,210.5C 151.591,210.565 154.091,211.065 156.5,212C 157.252,212.671 157.586,213.504 157.5,214.5 Z"/></g>
<g><path style="opacity:1" fill="#f4da54" d="M 95.5,159.5 C 97.2624,159.357 98.9291,159.691 100.5,160.5C 102.606,163.541 103.94,166.875 104.5,170.5C 105.5,170.5 106.5,170.5 107.5,170.5C 106.653,167.84 106.153,165.174 106,162.5C 107.298,164.265 108.464,166.099 109.5,168C 108.41,173.137 107.91,178.304 108,183.5C 108.915,182.672 109.581,181.672 110,180.5C 110.167,181.333 110.333,182.167 110.5,183C 110.135,187.781 108.968,188.281 107,184.5C 103.965,192.033 103.799,198.867 106.5,205C 105.353,208.94 103.519,211.773 101,213.5C 100.503,215.81 100.337,218.143 100.5,220.5C 99.3622,217.696 99.1955,214.696 100,211.5C 101.79,199.595 103.956,187.762 106.5,176C 103.061,170.386 99.3946,164.886 95.5,159.5 Z"/></g>
<g><path style="opacity:1" fill="#ebcf5d" d="M 201.5,131.5 C 210.458,133.187 219.125,135.687 227.5,139C 231.448,142.156 232.448,145.99 230.5,150.5C 230.669,141.883 226.336,137.716 217.5,138C 211.896,136.087 206.563,133.92 201.5,131.5 Z"/></g>
<g><path style="opacity:1" fill="#e1c559" d="M 183.5,123.5 C 184.627,124.122 185.627,124.955 186.5,126C 191.805,127.334 196.805,129.167 201.5,131.5C 196.484,130.496 191.484,129.33 186.5,128C 184.624,127.082 183.624,125.582 183.5,123.5 Z"/></g>
<g><path style="opacity:1" fill="#c3a247" d="M 110.5,124.5 C 103.736,126.235 96.7363,127.235 89.5,127.5C 96.2508,125.678 103.251,124.678 110.5,124.5 Z"/></g>
<g><path style="opacity:0.008" fill="#4e0e01" d="M 88.5,220.5 C 88.6567,221.873 88.49,223.207 88,224.5C 87.235,222.934 87.4017,221.601 88.5,220.5 Z"/></g>
<g><path style="opacity:0.004" fill="#240800" d="M 145.5,226.5 C 145.5,226.167 145.5,225.833 145.5,225.5C 148.167,225.833 148.167,226.167 145.5,226.5 Z"/></g>
<g><path style="opacity:0.008" fill="#600c01" d="M 142.5,226.5 C 143.5,226.5 144.5,226.5 145.5,226.5C 144.5,227.833 143.5,227.833 142.5,226.5 Z"/></g>
<g><path style="opacity:1" fill="#f1d65c" d="M 199.5,182.5 C 199.667,197.504 199.5,212.504 199,227.5C 197.833,228.667 196.667,229.833 195.5,231C 188.645,231.982 182.645,230.149 177.5,225.5C 180.522,225.804 183.522,226.304 186.5,227C 189.825,230.151 193.325,230.318 197,227.5C 198.118,212.395 198.951,197.395 199.5,182.5 Z"/></g>
<g><path style="opacity:0.008" fill="#560d01" d="M 139.5,228.5 C 139.5,228.167 139.5,227.833 139.5,227.5C 142.167,227.833 142.167,228.167 139.5,228.5 Z"/></g>
<g><path style="opacity:0.006" fill="#260c00" d="M 136.5,229.5 C 136.5,229.167 136.5,228.833 136.5,228.5C 137.5,228.5 138.5,228.5 139.5,228.5C 138.791,229.404 137.791,229.737 136.5,229.5 Z"/></g>
<g><path style="opacity:0.004" fill="#2f0d00" d="M 82.5,235.5 C 82.3354,232.482 82.502,229.482 83,226.5C 83.8045,229.696 83.6378,232.696 82.5,235.5 Z"/></g>
<g><path style="opacity:0.008" fill="#420f01" d="M 133.5,230.5 C 133.5,230.167 133.5,229.833 133.5,229.5C 134.5,229.5 135.5,229.5 136.5,229.5C 135.791,230.404 134.791,230.737 133.5,230.5 Z"/></g>
<g><path style="opacity:0.006" fill="#000000" d="M 210.5,231.5 C 210.369,230.761 210.536,230.094 211,229.5C 211.692,230.437 211.525,231.103 210.5,231.5 Z"/></g>
<g><path style="opacity:0.008" fill="#420f01" d="M 130.5,231.5 C 130.5,231.167 130.5,230.833 130.5,230.5C 131.5,230.5 132.5,230.5 133.5,230.5C 132.791,231.404 131.791,231.737 130.5,231.5 Z"/></g>
<g><path style="opacity:0.004" fill="#2f0e01" d="M 162.5,230.5 C 162.5,230.833 162.5,231.167 162.5,231.5C 159.833,231.167 159.833,230.833 162.5,230.5 Z"/></g>
<g><path style="opacity:0.008" fill="#420f01" d="M 127.5,232.5 C 127.5,232.167 127.5,231.833 127.5,231.5C 128.5,231.5 129.5,231.5 130.5,231.5C 129.791,232.404 128.791,232.737 127.5,232.5 Z"/></g>
<g><path style="opacity:0.008" fill="#000000" d="M 162.5,231.5 C 163.833,232.167 163.833,232.167 162.5,231.5 Z"/></g>
<g><path style="opacity:0.006" fill="#000000" d="M 209.5,231.5 C 209.833,231.5 210.167,231.5 210.5,231.5C 210.672,232.492 210.338,233.158 209.5,233.5C 209.5,232.833 209.5,232.167 209.5,231.5 Z"/></g>
<g><path style="opacity:0.004" fill="#2d0e00" d="M 124.5,232.5 C 125.5,232.5 126.5,232.5 127.5,232.5C 126.201,234.099 124.535,234.599 122.5,234C 123.416,233.722 124.082,233.222 124.5,232.5 Z"/></g>
<g><path style="opacity:0.008" fill="#7f0000" d="M 165.5,233.5 C 164.833,232.167 164.833,232.167 165.5,233.5 Z"/></g>
<g><path style="opacity:0.008" fill="#560d01" d="M 165.5,233.5 C 166.167,233.5 166.833,233.5 167.5,233.5C 166.833,234.833 166.167,234.833 165.5,233.5 Z"/></g>
<g><path style="opacity:0.008" fill="#000000" d="M 208.5,233.5 C 208.833,233.5 209.167,233.5 209.5,233.5C 209.315,234.17 208.981,234.17 208.5,233.5 Z"/></g>
<g><path style="opacity:0.004" fill="#240800" d="M 119.5,235.5 C 119.897,234.475 120.563,234.308 121.5,235C 120.906,235.464 120.239,235.631 119.5,235.5 Z"/></g>
<g><path style="opacity:0.006" fill="#000000" d="M 207.5,234.5 C 207.833,234.5 208.167,234.5 208.5,234.5C 208.167,237.167 207.833,237.167 207.5,234.5 Z"/></g>
<g><path style="opacity:0.008" fill="#420f01" d="M 116.5,235.5 C 117.5,235.5 118.5,235.5 119.5,235.5C 118.5,236.833 117.5,236.833 116.5,235.5 Z"/></g>
<g><path style="opacity:1" fill="#5f3416" d="M 46.5,217.5 C 46.5106,219.017 47.1772,220.184 48.5,221C 50.3325,221.748 51.9991,222.748 53.5,224C 58.8122,223.537 64.1455,222.704 69.5,221.5C 73.5029,221.249 76.3362,222.916 78,226.5C 78.6667,229.833 78.6667,233.167 78,236.5C 77.6924,237.308 77.1924,237.975 76.5,238.5C 77.0554,234.319 76.0554,230.319 73.5,226.5C 71.1667,225.167 68.8333,225.167 66.5,226.5C 68.6721,227.205 70.6721,228.205 72.5,229.5C 72.5269,233.971 72.6936,238.304 73,242.5C 74.1606,246.908 75.9939,250.908 78.5,254.5C 77.4616,257.788 78.1282,258.121 80.5,255.5C 83.3255,259.392 84.1588,263.725 83,268.5C 81.5773,270.504 79.744,272.004 77.5,273C 71.7401,272.878 66.4068,273.711 61.5,275.5C 61.5,275.833 61.5,276.167 61.5,276.5C 61.1667,276.5 60.8333,276.5 60.5,276.5C 56.3487,278.487 53.3487,281.654 51.5,286C 46.5638,288.415 42.0638,287.915 38,284.5C 35.7834,278.674 33.2834,273.008 30.5,267.5C 27.5045,265.331 24.1712,263.831 20.5,263C 17.6793,261.178 15.1793,259.011 13,256.5C 12.6717,253.793 13.005,251.126 14,248.5C 18.0482,244.784 22.3815,241.45 27,238.5C 28,232.5 29,226.5 30,220.5C 31.332,218.34 32.832,216.34 34.5,214.5C 39.1118,212.737 43.1118,213.737 46.5,217.5 Z"/></g>
<g><path style="opacity:1" fill="#fce34c" d="M 66.5,250.5 C 66.4595,253.881 66.7929,257.214 67.5,260.5C 71.9579,261.032 72.2912,262.032 68.5,263.5C 63.5338,264.331 58.5338,264.664 53.5,264.5C 53.6495,265.552 53.4828,266.552 53,267.5C 51.9032,265.947 50.5699,264.614 49,263.5C 47.5869,266.661 45.9203,269.661 44,272.5C 43.1243,268.415 41.9576,264.415 40.5,260.5C 38.2573,259.526 35.924,259.192 33.5,259.5C 29.4674,258.651 25.8008,256.984 22.5,254.5C 26.4929,250.676 30.6596,247.009 35,243.5C 36.2323,238.279 36.8989,232.946 37,227.5C 37.3076,226.692 37.8076,226.025 38.5,225.5C 42.9684,228.137 47.3017,230.97 51.5,234C 57.9636,234.303 64.297,233.47 70.5,231.5C 68.713,237.66 67.3796,243.993 66.5,250.5 Z"/></g>
<g><path style="opacity:0.012" fill="#2d2c09" d="M 81.5,235.5 C 81.8333,235.5 82.1667,235.5 82.5,235.5C 82.1667,239.5 81.8333,239.5 81.5,235.5 Z"/></g>
<g><path style="opacity:0.008" fill="#710000" d="M 113.5,237.5 C 113.5,237.167 113.5,236.833 113.5,236.5C 116.167,236.833 116.167,237.167 113.5,237.5 Z"/></g>
<g><path style="opacity:0.008" fill="#440f01" d="M 113.5,237.5 C 110.024,238.643 106.358,238.81 102.5,238C 106.152,237.501 109.818,237.335 113.5,237.5 Z"/></g>
<g><path style="opacity:1" fill="#573622" d="M 46.5,217.5 C 47.8333,218.167 49.1667,218.833 50.5,219.5C 50.9731,220.906 51.9731,221.573 53.5,221.5C 54.221,223.382 55.221,223.715 56.5,222.5C 59.4282,222.435 62.0948,221.768 64.5,220.5C 76.4994,218.332 82.166,223.332 81.5,235.5C 79.7995,238.926 78.4662,242.593 77.5,246.5C 80,250.833 82.5,255.167 85,259.5C 85.8097,263.69 85.3097,267.69 83.5,271.5C 82.8333,271.5 82.5,271.833 82.5,272.5C 81.5084,272.328 80.8417,272.662 80.5,273.5C 79.8333,273.5 79.5,273.833 79.5,274.5C 78.209,274.263 77.209,274.596 76.5,275.5C 71.5,275.5 66.5,275.5 61.5,275.5C 66.4068,273.711 71.7401,272.878 77.5,273C 79.744,272.004 81.5773,270.504 83,268.5C 84.1588,263.725 83.3255,259.392 80.5,255.5C 78.1282,258.121 77.4616,257.788 78.5,254.5C 75.9939,250.908 74.1606,246.908 73,242.5C 72.6936,238.304 72.5269,233.971 72.5,229.5C 70.6721,228.205 68.6721,227.205 66.5,226.5C 68.8333,225.167 71.1667,225.167 73.5,226.5C 76.0554,230.319 77.0554,234.319 76.5,238.5C 77.1924,237.975 77.6924,237.308 78,236.5C 78.6667,233.167 78.6667,229.833 78,226.5C 76.3362,222.916 73.5029,221.249 69.5,221.5C 64.1455,222.704 58.8122,223.537 53.5,224C 51.9991,222.748 50.3325,221.748 48.5,221C 47.1772,220.184 46.5106,219.017 46.5,217.5 Z M 64.5,220.5 C 62.0948,221.768 59.4282,222.435 56.5,222.5C 58.8383,220.96 61.5049,220.294 64.5,220.5 Z M 50.5,219.5 C 52.0269,219.427 53.0269,220.094 53.5,221.5C 51.9731,221.573 50.9731,220.906 50.5,219.5 Z"/></g>
<g><path style="opacity:0.008" fill="#000000" d="M 202.5,239.5 C 203.833,240.167 203.833,240.167 202.5,239.5 Z"/></g>
<g><path style="opacity:0.008" fill="#420f01" d="M 80.5,242.5 C 80.3505,241.448 80.5172,240.448 81,239.5C 81.7401,240.749 81.5735,241.749 80.5,242.5 Z"/></g>
<g><path style="opacity:0.008" fill="#7f0000" d="M 202.5,240.5 C 201.833,241.167 201.833,241.167 202.5,240.5 Z"/></g>
<g><path style="opacity:0.008" fill="#7f0000" d="M 199.5,241.5 C 200.833,242.167 200.833,242.167 199.5,241.5 Z"/></g>
<g><path style="opacity:0.008" fill="#7e0a03" d="M 258.5,242.5 C 260.288,241.378 262.288,241.211 264.5,242C 262.527,242.495 260.527,242.662 258.5,242.5 Z"/></g>
<g><path style="opacity:0.008" fill="#420f01" d="M 196.5,243.5 C 196.5,243.167 196.5,242.833 196.5,242.5C 197.5,242.5 198.5,242.5 199.5,242.5C 198.791,243.404 197.791,243.737 196.5,243.5 Z"/></g>
<g><path style="opacity:0.006" fill="#1b1905" d="M 80.5,242.5 C 80.6495,243.552 80.4828,244.552 80,245.5C 79.2599,244.251 79.4265,243.251 80.5,242.5 Z"/></g>
<g><path style="opacity:0.012" fill="#473806" d="M 196.5,243.5 C 193.36,244.641 190.027,244.808 186.5,244C 189.817,243.502 193.15,243.335 196.5,243.5 Z"/></g>
<g><path style="opacity:0.008" fill="#560d01" d="M 11.5,249.5 C 11.1667,249.5 10.8333,249.5 10.5,249.5C 10.8333,246.833 11.1667,246.833 11.5,249.5 Z"/></g>
<g><path style="opacity:0.008" fill="#4e0e01" d="M 10.5,249.5 C 10.6567,250.873 10.49,252.207 10,253.5C 9.23502,251.934 9.40168,250.601 10.5,249.5 Z"/></g>
<g><path style="opacity:0.008" fill="#660a01" d="M 9.5,254.5 C 10.5983,255.601 10.765,256.934 10,258.5C 9.50999,257.207 9.34332,255.873 9.5,254.5 Z"/></g>
<g><path style="opacity:0.008" fill="#420f01" d="M 219.5,262.5 C 218.732,263.263 218.232,264.263 218,265.5C 217.226,263.597 217.56,261.93 219,260.5C 219.464,261.094 219.631,261.761 219.5,262.5 Z"/></g>
<g><path style="opacity:1" fill="#f4db55" d="M 66.5,250.5 C 69.9466,255.059 72.6133,260.059 74.5,265.5C 68.4632,265.171 62.4632,265.504 56.5,266.5C 52.9801,270.186 49.6468,274.019 46.5,278C 45.552,278.483 44.552,278.649 43.5,278.5C 42.3102,273.429 40.8102,268.429 39,263.5C 37.5002,261.531 35.6669,260.198 33.5,259.5C 35.924,259.192 38.2573,259.526 40.5,260.5C 41.9576,264.415 43.1243,268.415 44,272.5C 45.9203,269.661 47.5869,266.661 49,263.5C 50.5699,264.614 51.9032,265.947 53,267.5C 53.4828,266.552 53.6495,265.552 53.5,264.5C 58.5338,264.664 63.5338,264.331 68.5,263.5C 72.2912,262.032 71.9579,261.032 67.5,260.5C 66.7929,257.214 66.4595,253.881 66.5,250.5 Z"/></g>
<g><path style="opacity:0.005" fill="#1b0700" d="M 218.5,267.5 C 218.263,268.791 218.596,269.791 219.5,270.5C 219.607,272.379 219.107,272.712 218,271.5C 217.235,269.934 217.402,268.601 218.5,267.5 Z"/></g>
<g><path style="opacity:0.008" fill="#7f0000" d="M 285.5,268.5 C 286.833,269.167 286.833,269.167 285.5,268.5 Z"/></g>
<g><path style="opacity:0.004" fill="#000000" d="M 83.5,271.5 C 84.8333,272.167 84.8333,272.167 83.5,271.5 Z"/></g>
<g><path style="opacity:0.008" fill="#7f0000" d="M 82.5,272.5 C 82.8333,272.5 83.1667,272.5 83.5,272.5C 83.3147,273.17 82.9813,273.17 82.5,272.5 Z"/></g>
<g><path style="opacity:0.369" fill="#4a3326" d="M 275.5,265.5 C 278.833,266.833 282.167,268.167 285.5,269.5C 292.319,273.286 294.653,278.953 292.5,286.5C 291.662,286.842 291.328,287.508 291.5,288.5C 290.833,288.5 290.5,288.833 290.5,289.5C 289.833,289.5 289.167,289.5 288.5,289.5C 293.063,283.064 292.396,277.231 286.5,272C 282.473,270.324 278.806,268.158 275.5,265.5 Z"/></g>
<g><path style="opacity:0.004" fill="#210a00" d="M 80.5,273.5 C 81.1667,273.5 81.8333,273.5 82.5,273.5C 81.779,275.382 80.779,275.715 79.5,274.5C 80.1667,274.5 80.5,274.167 80.5,273.5 Z"/></g>
<g><path style="opacity:0.004" fill="#2f0e01" d="M 220.5,275.5 C 219.475,275.103 219.308,274.437 220,273.5C 220.464,274.094 220.631,274.761 220.5,275.5 Z"/></g>
<g><path style="opacity:0.008" fill="#845f00" d="M 76.5,276.5 C 76.5,276.167 76.5,275.833 76.5,275.5C 79.1667,275.833 79.1667,276.167 76.5,276.5 Z"/></g>
<g><path style="opacity:0.006" fill="#200c00" d="M 61.5,277.5 C 61.5,277.167 61.5,276.833 61.5,276.5C 66.5,276.5 71.5,276.5 76.5,276.5C 71.6946,277.487 66.6946,277.821 61.5,277.5 Z"/></g>
<g><path style="opacity:0.004" fill="#2f0e01" d="M 220.5,275.5 C 220.833,275.5 221.167,275.5 221.5,275.5C 221.5,276.167 221.5,276.833 221.5,277.5C 220.662,277.158 220.328,276.492 220.5,275.5 Z"/></g>
<g><path style="opacity:1" fill="#4e3322" d="M 34.5,214.5 C 32.832,216.34 31.332,218.34 30,220.5C 29,226.5 28,232.5 27,238.5C 22.3815,241.45 18.0482,244.784 14,248.5C 13.005,251.126 12.6717,253.793 13,256.5C 15.1793,259.011 17.6793,261.178 20.5,263C 24.1712,263.831 27.5045,265.331 30.5,267.5C 33.2834,273.008 35.7834,278.674 38,284.5C 42.0638,287.915 46.5638,288.415 51.5,286C 53.3487,281.654 56.3487,278.487 60.5,276.5C 60.5,276.833 60.5,277.167 60.5,277.5C 59.8333,277.5 59.5,277.833 59.5,278.5C 58.6618,278.842 58.3284,279.508 58.5,280.5C 57.8333,280.5 57.5,280.833 57.5,281.5C 56.8333,281.5 56.5,281.833 56.5,282.5C 54.457,283.579 53.1237,285.246 52.5,287.5C 51.5084,287.328 50.8417,287.662 50.5,288.5C 49.5084,288.328 48.8417,288.662 48.5,289.5C 43.7291,290.258 39.7291,288.925 36.5,285.5C 36.0679,284.29 35.4013,283.29 34.5,282.5C 34.7373,281.209 34.404,280.209 33.5,279.5C 33.6716,278.508 33.3382,277.842 32.5,277.5C 32.2866,274.525 31.2866,271.858 29.5,269.5C 23.4713,267.404 17.9713,264.404 13,260.5C 11.6632,256.974 11.1632,253.308 11.5,249.5C 15.8271,245.017 20.6604,241.017 26,237.5C 26.5935,231.825 27.2602,226.158 28,220.5C 29.4055,217.591 31.5722,215.591 34.5,214.5 Z"/></g>
<g><path style="opacity:0.005" fill="#000000" d="M 60.5,277.5 C 60.8333,277.5 61.1667,277.5 61.5,277.5C 61.573,279.027 60.9063,280.027 59.5,280.5C 59.5,279.833 59.5,279.167 59.5,278.5C 60.1667,278.5 60.5,278.167 60.5,277.5 Z"/></g>
<g><path style="opacity:0.008" fill="#560d01" d="M 32.5,277.5 C 32.5,278.167 32.5,278.833 32.5,279.5C 31.1667,278.833 31.1667,278.167 32.5,277.5 Z"/></g>
<g><path style="opacity:0.004" fill="#2f0e01" d="M 221.5,277.5 C 221.833,277.5 222.167,277.5 222.5,277.5C 222.5,278.167 222.5,278.833 222.5,279.5C 221.662,279.158 221.328,278.492 221.5,277.5 Z"/></g>
<g><path style="opacity:0.008" fill="#420f01" d="M 32.5,279.5 C 32.8333,279.5 33.1667,279.5 33.5,279.5C 33.5,280.5 33.5,281.5 33.5,282.5C 32.596,281.791 32.2627,280.791 32.5,279.5 Z"/></g>
<g><path style="opacity:0.008" fill="#7f0000" d="M 58.5,280.5 C 58.8333,280.5 59.1667,280.5 59.5,280.5C 59.3147,281.17 58.9813,281.17 58.5,280.5 Z"/></g>
<g><path style="opacity:0.004" fill="#2f0e01" d="M 222.5,279.5 C 222.833,279.5 223.167,279.5 223.5,279.5C 223.167,282.167 222.833,282.167 222.5,279.5 Z"/></g>
<g><path style="opacity:0.012" fill="#540000" d="M 57.5,281.5 C 57.8333,281.5 58.1667,281.5 58.5,281.5C 58.3147,282.17 57.9813,282.17 57.5,281.5 Z"/></g>
<g><path style="opacity:0.008" fill="#7f0000" d="M 56.5,282.5 C 56.8333,282.5 57.1667,282.5 57.5,282.5C 57.3147,283.17 56.9813,283.17 56.5,282.5 Z"/></g>
<g><path style="opacity:0.004" fill="#2f0e01" d="M 33.5,282.5 C 33.8333,282.5 34.1667,282.5 34.5,282.5C 34.1667,285.167 33.8333,285.167 33.5,282.5 Z"/></g>
<g><path style="opacity:0.004" fill="#000000" d="M 36.5,285.5 C 35.8333,286.167 35.8333,286.167 36.5,285.5 Z"/></g>
<g><path style="opacity:0.006" fill="#000000" d="M 292.5,286.5 C 293.833,287.167 293.833,287.833 292.5,288.5C 292.5,287.833 292.5,287.167 292.5,286.5 Z"/></g>
<g><path style="opacity:0.008" fill="#000000" d="M 52.5,287.5 C 53.8333,288.167 53.8333,288.167 52.5,287.5 Z"/></g>
<g><path style="opacity:0.004" fill="#000000" d="M 50.5,289.5 C 50.5,289.167 50.5,288.833 50.5,288.5C 51.1667,288.5 51.8333,288.5 52.5,288.5C 52.1583,289.338 51.4916,289.672 50.5,289.5 Z"/></g>
<g><path style="opacity:0.004" fill="#000000" d="M 291.5,288.5 C 291.833,288.5 292.167,288.5 292.5,288.5C 292.315,289.17 291.981,289.17 291.5,288.5 Z"/></g>
<g><path style="opacity:0.004" fill="#000000" d="M 290.5,289.5 C 290.833,289.5 291.167,289.5 291.5,289.5C 291.315,290.17 290.981,290.17 290.5,289.5 Z"/></g>
<g><path style="opacity:0.008" fill="#420d01" d="M 48.5,289.5 C 49.1667,289.5 49.8333,289.5 50.5,289.5C 50.3893,290.117 50.056,290.617 49.5,291C 46.8333,291.667 44.1667,291.667 41.5,291C 44.0356,290.814 46.369,290.314 48.5,289.5 Z"/></g>
<g><path style="opacity:0.004" fill="#000000" d="M 288.5,291.5 C 288.5,291.167 288.5,290.833 288.5,290.5C 289.167,290.5 289.833,290.5 290.5,290.5C 290.158,291.338 289.492,291.672 288.5,291.5 Z"/></g>
<g><path style="opacity:0.008" fill="#000000" d="M 287.5,291.5 C 287.833,291.5 288.167,291.5 288.5,291.5C 288.315,292.17 287.981,292.17 287.5,291.5 Z"/></g>
<g><path style="opacity:0.008" fill="#7f0000" d="M 286.5,292.5 C 286.833,292.5 287.167,292.5 287.5,292.5C 287.315,293.17 286.981,293.17 286.5,292.5 Z"/></g>
<g><path style="opacity:0.006" fill="#000000" d="M 284.5,294.5 C 284.5,294.167 284.5,293.833 284.5,293.5C 285.167,293.5 285.833,293.5 286.5,293.5C 286.158,294.338 285.492,294.672 284.5,294.5 Z"/></g>
<g><path style="opacity:0.004" fill="#291b07" d="M 221.5,295.5 C 220.732,296.263 220.232,297.263 220,298.5C 219.365,296.365 219.699,294.365 221,292.5C 221.483,293.448 221.649,294.448 221.5,295.5 Z"/></g>
<g><path style="opacity:0.008" fill="#7f0000" d="M 283.5,294.5 C 283.833,294.5 284.167,294.5 284.5,294.5C 284.315,295.17 283.981,295.17 283.5,294.5 Z"/></g>
<g><path style="opacity:0.816" fill="#513526" d="M 255.5,245.5 C 252.733,250.102 249.066,253.936 244.5,257C 238.167,257.333 231.833,257.667 225.5,258C 221.64,260.548 220.14,264.048 221,268.5C 223.476,273.774 225.643,279.108 227.5,284.5C 227.333,286.167 227.167,287.833 227,289.5C 221.336,295.602 221.169,301.768 226.5,308C 228.909,308.935 231.409,309.435 234,309.5C 240.179,308.379 246.346,308.379 252.5,309.5C 253.885,310.551 254.885,311.884 255.5,313.5C 257.396,314.466 259.396,314.799 261.5,314.5C 261.5,315.833 261.5,317.167 261.5,318.5C 263.604,318.799 265.604,318.466 267.5,317.5C 268.276,315.644 269.609,314.311 271.5,313.5C 273.452,308.312 274.786,302.978 275.5,297.5C 277.243,295.962 279.243,294.962 281.5,294.5C 281.5,294.833 281.5,295.167 281.5,295.5C 280.833,295.5 280.5,295.833 280.5,296.5C 279.508,296.328 278.842,296.662 278.5,297.5C 277.539,299.265 277.205,301.265 277.5,303.5C 276.549,304.919 276.216,306.585 276.5,308.5C 275.549,309.919 275.216,311.585 275.5,313.5C 274.662,313.842 274.328,314.508 274.5,315.5C 273.833,315.5 273.5,315.833 273.5,316.5C 272.833,316.5 272.5,316.833 272.5,317.5C 271.508,317.328 270.842,317.662 270.5,318.5C 269.833,318.5 269.5,318.833 269.5,319.5C 266.167,319.5 262.833,319.5 259.5,319.5C 259.027,318.094 258.027,317.427 256.5,317.5C 254.393,315.273 252.06,313.273 249.5,311.5C 248.688,310.007 247.355,309.34 245.5,309.5C 242.298,309.86 239.298,310.526 236.5,311.5C 229.849,312.407 224.849,310.074 221.5,304.5C 221.737,303.209 221.404,302.209 220.5,301.5C 221.15,299.565 221.483,297.565 221.5,295.5C 223.3,291.939 224.633,288.106 225.5,284C 225.475,282.124 224.809,280.624 223.5,279.5C 223.672,278.508 223.338,277.842 222.5,277.5C 222.672,276.508 222.338,275.842 221.5,275.5C 221.598,273.447 220.931,271.78 219.5,270.5C 219.737,269.209 219.404,268.209 218.5,267.5C 219.301,265.958 219.634,264.292 219.5,262.5C 221.309,259.861 223.642,257.694 226.5,256C 232.833,255.667 239.167,255.333 245.5,255C 248.703,251.629 252.036,248.462 255.5,245.5 Z M 249.5,311.5 C 245.238,310.908 240.905,310.908 236.5,311.5C 239.298,310.526 242.298,309.86 245.5,309.5C 247.355,309.34 248.688,310.007 249.5,311.5 Z"/></g>
<g><path style="opacity:0.006" fill="#000000" d="M 281.5,296.5 C 281.5,296.167 281.5,295.833 281.5,295.5C 282.167,295.5 282.833,295.5 283.5,295.5C 283.158,296.338 282.492,296.672 281.5,296.5 Z"/></g>
<g><path style="opacity:1" fill="#603416" d="M 275.5,265.5 C 278.806,268.158 282.473,270.324 286.5,272C 292.396,277.231 293.063,283.064 288.5,289.5C 288.5,289.833 288.5,290.167 288.5,290.5C 287.833,290.5 287.5,290.833 287.5,291.5C 286.833,291.5 286.5,291.833 286.5,292.5C 285.508,292.328 284.842,292.662 284.5,293.5C 283.833,293.5 283.5,293.833 283.5,294.5C 282.833,294.5 282.167,294.5 281.5,294.5C 279.243,294.962 277.243,295.962 275.5,297.5C 274.786,302.978 273.452,308.312 271.5,313.5C 269.609,314.311 268.276,315.644 267.5,317.5C 265.604,318.466 263.604,318.799 261.5,318.5C 261.5,317.167 261.5,315.833 261.5,314.5C 259.396,314.799 257.396,314.466 255.5,313.5C 254.885,311.884 253.885,310.551 252.5,309.5C 246.346,308.379 240.179,308.379 234,309.5C 231.409,309.435 228.909,308.935 226.5,308C 221.169,301.768 221.336,295.602 227,289.5C 227.167,287.833 227.333,286.167 227.5,284.5C 225.643,279.108 223.476,273.774 221,268.5C 220.14,264.048 221.64,260.548 225.5,258C 231.833,257.667 238.167,257.333 244.5,257C 249.066,253.936 252.733,250.102 255.5,245.5C 263.046,241.483 268.546,243.483 272,251.5C 273.485,256.108 274.652,260.774 275.5,265.5 Z"/></g>
<g><path style="opacity:1" fill="#fbe34c" d="M 266.5,299.5 C 265.076,301.515 264.41,303.848 264.5,306.5C 263.5,306.5 262.5,306.5 261.5,306.5C 258.044,304.217 254.71,301.717 251.5,299C 245.167,298.766 238.834,298.932 232.5,299.5C 233.855,293.932 235.522,288.432 237.5,283C 235.275,277.392 232.942,271.892 230.5,266.5C 236.842,266.666 243.175,266.5 249.5,266C 252.833,262.667 256.167,259.333 259.5,256C 260.448,255.517 261.448,255.351 262.5,255.5C 263.891,260.844 265.391,266.177 267,271.5C 272.324,274.22 277.491,277.22 282.5,280.5C 277.833,284.327 272.999,287.994 268,291.5C 267.178,294.117 266.678,296.784 266.5,299.5 Z"/></g>
<g><path style="opacity:0.008" fill="#7f0000" d="M 280.5,296.5 C 280.833,296.5 281.167,296.5 281.5,296.5C 281.315,297.17 280.981,297.17 280.5,296.5 Z"/></g>
<g><path style="opacity:0.012" fill="#360a00" d="M 278.5,297.5 C 279.167,297.5 279.833,297.5 280.5,297.5C 279.952,299.626 279.285,301.626 278.5,303.5C 278.5,301.5 278.5,299.5 278.5,297.5 Z"/></g>
<g><path style="opacity:0.004" fill="#000000" d="M 219.5,301.5 C 218.833,300.167 218.833,300.167 219.5,301.5 Z"/></g>
<g><path style="opacity:0.004" fill="#260c00" d="M 219.5,301.5 C 219.833,301.5 220.167,301.5 220.5,301.5C 220.263,302.791 220.596,303.791 221.5,304.5C 221.607,306.379 221.107,306.712 220,305.5C 219.51,304.207 219.343,302.873 219.5,301.5 Z"/></g>
<g><path style="opacity:0.012" fill="#44302c" d="M 277.5,303.5 C 277.833,303.5 278.167,303.5 278.5,303.5C 278.784,305.415 278.451,307.081 277.5,308.5C 277.5,306.833 277.5,305.167 277.5,303.5 Z"/></g>
<g><path style="opacity:1" fill="#be9e4d" d="M 266.5,299.5 C 266.559,302.962 265.559,305.962 263.5,308.5C 262.478,308.145 261.811,307.478 261.5,306.5C 262.5,306.5 263.5,306.5 264.5,306.5C 264.41,303.848 265.076,301.515 266.5,299.5 Z"/></g>
<g><path style="opacity:0.008" fill="#6a0901" d="M 276.5,308.5 C 276.833,308.5 277.167,308.5 277.5,308.5C 277.784,310.415 277.451,312.081 276.5,313.5C 276.5,311.833 276.5,310.167 276.5,308.5 Z"/></g>
<g><path style="opacity:0.004" fill="#000000" d="M 229.5,313.5 C 231.628,312.371 233.961,312.204 236.5,313C 234.19,313.497 231.857,313.663 229.5,313.5 Z"/></g>
<g><path style="opacity:0.008" fill="#7f0000" d="M 275.5,313.5 C 275.833,313.5 276.167,313.5 276.5,313.5C 276.315,314.17 275.981,314.17 275.5,313.5 Z"/></g>
<g><path style="opacity:0.008" fill="#000000" d="M 274.5,315.5 C 275.833,316.167 275.833,316.167 274.5,315.5 Z"/></g>
<g><path style="opacity:0.008" fill="#7f0000" d="M 273.5,316.5 C 273.833,316.5 274.167,316.5 274.5,316.5C 274.315,317.17 273.981,317.17 273.5,316.5 Z"/></g>
<g><path style="opacity:0.012" fill="#540000" d="M 256.5,317.5 C 256.5,317.833 256.5,318.167 256.5,318.5C 255.83,318.019 255.83,317.685 256.5,317.5 Z"/></g>
<g><path style="opacity:0.008" fill="#7f0000" d="M 272.5,317.5 C 272.833,317.5 273.167,317.5 273.5,317.5C 273.315,318.17 272.981,318.17 272.5,317.5 Z"/></g>
<g><path style="opacity:0.008" fill="#000000" d="M 256.5,318.5 C 257.167,318.5 257.5,318.833 257.5,319.5C 257.167,319.167 256.833,318.833 256.5,318.5 Z"/></g>
<g><path style="opacity:0.006" fill="#000000" d="M 270.5,319.5 C 270.5,319.167 270.5,318.833 270.5,318.5C 271.167,318.5 271.833,318.5 272.5,318.5C 272.5,318.833 272.5,319.167 272.5,319.5C 271.833,319.5 271.167,319.5 270.5,319.5 Z"/></g>
</svg>
