<?xml version="1.0" encoding="UTF-8"?>
<!DOCTYPE svg PUBLIC "-//W3C//DTD SVG 1.1//EN" "http://www.w3.org/Graphics/SVG/1.1/DTD/svg11.dtd">
<svg xmlns="http://www.w3.org/2000/svg" version="1.1" width="500px" height="500px" style="shape-rendering:geometricPrecision; text-rendering:geometricPrecision; image-rendering:optimizeQuality; fill-rule:evenodd; clip-rule:evenodd" xmlns:xlink="http://www.w3.org/1999/xlink">
<g><path style="opacity:0.337" fill="#5d4336" d="M 408.5,0.5 C 409.525,0.896566 409.692,1.56323 409,2.5C 407.089,4.34234 405.089,6.00901 403,7.5C 402.333,6.83333 401.667,6.16667 401,5.5C 392.548,12.4649 383.715,18.7982 374.5,24.5C 381.582,18.4455 388.915,12.6122 396.5,7C 400.155,4.1735 404.155,2.00683 408.5,0.5 Z"/></g>
<g><path style="opacity:1" fill="#543828" d="M 145.5,52.5 C 140.241,51.998 135.074,51.998 130,52.5C 125.591,47.9899 121.425,43.3233 117.5,38.5C 117.389,37.8826 117.056,37.3826 116.5,37C 111.473,36.0625 106.64,36.5625 102,38.5C 101.365,39.9663 100.531,41.2997 99.5,42.5C 100.609,44.2141 99.9418,44.8808 97.5,44.5C 97.162,46.854 96.662,49.1873 96,51.5C 95.0922,53.4386 93.5922,54.4386 91.5,54.5C 93.7814,48.6575 96.4481,42.9908 99.5,37.5C 105.22,32.0563 111.553,31.223 118.5,35C 120.989,40.1734 124.322,44.8401 128.5,49C 134.347,49.9052 140.014,51.0718 145.5,52.5 Z"/></g>
<g><path style="opacity:1" fill="#53301a" d="M 117.5,38.5 C 121.425,43.3233 125.591,47.9899 130,52.5C 135.074,51.998 140.241,51.998 145.5,52.5C 147.471,55.9687 149.971,58.9687 153,61.5C 153.498,64.8168 153.665,68.1501 153.5,71.5C 152.542,71.9528 151.708,72.6195 151,73.5C 150.601,73.2716 150.435,72.9382 150.5,72.5C 151.008,69.6114 151.675,66.7781 152.5,64C 149.619,62.7494 147.786,60.5827 147,57.5C 143.26,54.4458 139.26,53.7792 135,55.5C 131.934,54.2867 128.767,53.4534 125.5,53C 123.497,50.911 122.33,48.411 122,45.5C 120.184,44.6705 118.351,43.8372 116.5,43C 117.38,41.6439 117.714,40.1439 117.5,38.5 Z"/></g>
<g><path style="opacity:1" fill="#583a29" d="M 374.5,24.5 C 373.551,25.1524 372.385,25.4857 371,25.5C 356.576,22.7613 342.076,21.7613 327.5,22.5C 325.798,25.702 323.298,28.0353 320,29.5C 319.508,30.549 319.674,31.549 320.5,32.5C 318.493,34.0082 316.826,35.8416 315.5,38C 316.702,47.0124 318.535,55.8457 321,64.5C 322,65.8333 323,67.1667 324,68.5C 324.336,72.6888 324.836,76.8555 325.5,81C 323.969,84.397 323.136,87.897 323,91.5C 319.589,95.724 316.922,100.391 315,105.5C 312.724,106.762 310.891,108.429 309.5,110.5C 314.354,100.626 319.354,90.793 324.5,81C 320.667,69.5 316.833,58 313,46.5C 310.924,29.9855 318.091,20.3188 334.5,17.5C 347.827,19.8323 361.16,22.1656 374.5,24.5 Z"/></g>
<g><path style="opacity:0.467" fill="#58463a" d="M 145.5,52.5 C 149.754,53.5852 152.587,56.2518 154,60.5C 156.098,64.4142 155.932,68.0809 153.5,71.5C 153.665,68.1501 153.498,64.8168 153,61.5C 149.971,58.9687 147.471,55.9687 145.5,52.5 Z"/></g>
<g><path style="opacity:0.984" fill="#543424" d="M 422.5,0.5 C 426.982,1.66256 430.816,3.99589 434,7.5C 435.535,11.7728 436.869,16.1062 438,20.5C 439.573,31.8474 441.24,43.1807 443,54.5C 454.28,62.1132 465.28,70.1132 476,78.5C 483.839,90.3036 482.673,101.137 472.5,111C 460.649,116.504 448.816,122.004 437,127.5C 432.601,139.363 428.601,151.363 425,163.5C 416.622,177.804 405.122,180.971 390.5,173C 386.963,169.631 383.629,166.131 380.5,162.5C 381.873,162.343 383.207,162.51 384.5,163C 385.304,164.771 386.471,166.271 388,167.5C 388.333,166.833 388.667,166.167 389,165.5C 390.768,169.181 393.602,171.681 397.5,173C 402.891,173.692 408.225,173.359 413.5,172C 412.184,170.022 412.684,168.522 415,167.5C 415.333,168.167 415.667,168.833 416,169.5C 418.664,166.223 421.331,162.889 424,159.5C 426.664,149.517 429.331,139.517 432,129.5C 432.465,128.069 433.299,126.903 434.5,126C 433.542,124.853 433.875,123.853 435.5,123C 440.036,123.048 443.87,121.548 447,118.5C 454.992,114.946 463.158,111.779 471.5,109C 472.333,108.167 473.167,107.333 474,106.5C 474.716,103.28 475.883,100.28 477.5,97.5C 478.655,94.5541 478.821,91.5541 478,88.5C 476.036,86.1253 474.536,83.4587 473.5,80.5C 469.666,77.4177 465.666,74.5844 461.5,72C 460.551,71.3828 459.718,71.5494 459,72.5C 453.459,67.7842 448.126,62.7842 443,57.5C 441.263,53.3505 440.263,49.0172 440,44.5C 439.581,43.3279 438.915,42.3279 438,41.5C 436.976,30.1805 434.642,19.1805 431,8.5C 429.055,7.13672 426.888,6.30339 424.5,6C 423.536,4.27454 422.869,2.44121 422.5,0.5 Z"/></g>
<g><path style="opacity:1" fill="#603416" d="M 117.5,38.5 C 117.714,40.1439 117.38,41.6439 116.5,43C 118.351,43.8372 120.184,44.6705 122,45.5C 122.33,48.411 123.497,50.911 125.5,53C 128.767,53.4534 131.934,54.2867 135,55.5C 139.26,53.7792 143.26,54.4458 147,57.5C 147.786,60.5827 149.619,62.7494 152.5,64C 151.675,66.7781 151.008,69.6114 150.5,72.5C 145.625,75.3956 143.292,79.7289 143.5,85.5C 145.055,91.7221 145.555,98.0554 145,104.5C 142.765,106.202 140.265,107.202 137.5,107.5C 137.5,108.5 137.5,109.5 137.5,110.5C 130.933,108.318 124.099,106.985 117,106.5C 111.924,107.958 107.758,110.791 104.5,115C 100.833,115.667 97.1667,115.667 93.5,115C 94.1667,114.667 94.8333,114.333 95.5,114C 94,112.833 92.5,111.667 91,110.5C 90.6667,110.833 90.3333,111.167 90,111.5C 88.6667,104.167 87.3333,96.8333 86,89.5C 82.3856,87.219 79.3856,84.219 77,80.5C 72.6675,74.8856 72.5008,69.219 76.5,63.5C 81.4487,60.3089 86.4487,57.3089 91.5,54.5C 93.5922,54.4386 95.0922,53.4386 96,51.5C 96.662,49.1873 97.162,46.854 97.5,44.5C 99.9418,44.8808 100.609,44.2141 99.5,42.5C 100.531,41.2997 101.365,39.9663 102,38.5C 106.64,36.5625 111.473,36.0625 116.5,37C 117.056,37.3826 117.389,37.8826 117.5,38.5 Z"/></g>
<g><path style="opacity:1" fill="#fde64a" d="M 101.5,87.5 C 101.5,86.8333 101.5,86.1667 101.5,85.5C 100.051,81.5276 97.5508,78.1943 94,75.5C 93.51,74.2068 93.3433,72.8734 93.5,71.5C 95.7925,71.2436 97.9592,71.5769 100,72.5C 101.098,71.0325 102.598,70.1992 104.5,70C 105.783,67.3733 107.283,64.8733 109,62.5C 109.49,61.2068 109.657,59.8734 109.5,58.5C 113.523,59.0252 115.69,61.3585 116,65.5C 116.903,66.7014 118.069,67.5348 119.5,68C 123.486,68.4988 127.486,68.6655 131.5,68.5C 131.5,70.1667 131.5,71.8333 131.5,73.5C 130.5,73.5 129.5,73.5 128.5,73.5C 126.314,79.373 125.98,85.373 127.5,91.5C 124.31,91.4408 121.143,91.1074 118,90.5C 112.915,91.1447 108.082,92.4781 103.5,94.5C 103.662,92.4727 103.495,90.4727 103,88.5C 102.617,87.944 102.117,87.6107 101.5,87.5 Z"/></g>
<g><path style="opacity:1" fill="#f4d861" d="M 115.5,59.5 C 117.397,62.5594 120.064,64.7261 123.5,66C 127.871,66.1725 132.204,66.6725 136.5,67.5C 134.198,71.633 131.698,75.633 129,79.5C 128.938,83.1483 129.105,86.815 129.5,90.5C 129.762,91.9778 129.429,93.3112 128.5,94.5C 126.591,93.6518 124.591,93.3184 122.5,93.5C 119.592,92.4309 116.592,92.2642 113.5,93C 109.817,95.8718 105.817,98.0384 101.5,99.5C 101.5,95.5 101.5,91.5 101.5,87.5C 102.117,87.6107 102.617,87.944 103,88.5C 103.495,90.4727 103.662,92.4727 103.5,94.5C 108.082,92.4781 112.915,91.1447 118,90.5C 121.143,91.1074 124.31,91.4408 127.5,91.5C 125.98,85.373 126.314,79.373 128.5,73.5C 129.5,73.5 130.5,73.5 131.5,73.5C 131.5,71.8333 131.5,70.1667 131.5,68.5C 127.486,68.6655 123.486,68.4988 119.5,68C 118.069,67.5348 116.903,66.7014 116,65.5C 115.69,61.3585 113.523,59.0252 109.5,58.5C 109.657,59.8734 109.49,61.2068 109,62.5C 107.283,64.8733 105.783,67.3733 104.5,70C 102.598,70.1992 101.098,71.0325 100,72.5C 97.9592,71.5769 95.7925,71.2436 93.5,71.5C 93.3433,72.8734 93.51,74.2068 94,75.5C 97.5508,78.1943 100.051,81.5276 101.5,85.5C 100.833,84.8333 100.167,84.1667 99.5,83.5C 96.3348,79.502 92.6681,76.002 88.5,73C 93.1667,71 97.8333,69 102.5,67C 105.971,63.0452 108.305,58.5452 109.5,53.5C 111.882,55.215 113.882,57.215 115.5,59.5 Z"/></g>
<g><path style="opacity:1" fill="#5f3417" d="M 408.5,0.5 C 408.5,0.166667 408.5,-0.166667 408.5,-0.5C 413.167,-0.5 417.833,-0.5 422.5,-0.5C 422.5,-0.166667 422.5,0.166667 422.5,0.5C 422.869,2.44121 423.536,4.27454 424.5,6C 426.888,6.30339 429.055,7.13672 431,8.5C 434.642,19.1805 436.976,30.1805 438,41.5C 438.915,42.3279 439.581,43.3279 440,44.5C 440.263,49.0172 441.263,53.3505 443,57.5C 448.126,62.7842 453.459,67.7842 459,72.5C 459.718,71.5494 460.551,71.3828 461.5,72C 465.666,74.5844 469.666,77.4177 473.5,80.5C 474.536,83.4587 476.036,86.1253 478,88.5C 478.821,91.5541 478.655,94.5541 477.5,97.5C 475.883,100.28 474.716,103.28 474,106.5C 473.167,107.333 472.333,108.167 471.5,109C 463.158,111.779 454.992,114.946 447,118.5C 443.87,121.548 440.036,123.048 435.5,123C 433.875,123.853 433.542,124.853 434.5,126C 433.299,126.903 432.465,128.069 432,129.5C 429.331,139.517 426.664,149.517 424,159.5C 421.331,162.889 418.664,166.223 416,169.5C 415.667,168.833 415.333,168.167 415,167.5C 412.684,168.522 412.184,170.022 413.5,172C 408.225,173.359 402.891,173.692 397.5,173C 393.602,171.681 390.768,169.181 389,165.5C 388.667,166.167 388.333,166.833 388,167.5C 386.471,166.271 385.304,164.771 384.5,163C 383.207,162.51 381.873,162.343 380.5,162.5C 379.833,162.5 379.5,162.167 379.5,161.5C 379.938,161.565 380.272,161.399 380.5,161C 375.787,154.624 370.454,148.958 364.5,144C 351.16,143.734 337.826,143.734 324.5,144C 316.013,142.676 311.346,138.176 310.5,130.5C 308.239,124.064 307.906,117.397 309.5,110.5C 310.891,108.429 312.724,106.762 315,105.5C 316.922,100.391 319.589,95.724 323,91.5C 323.136,87.897 323.969,84.397 325.5,81C 324.836,76.8555 324.336,72.6888 324,68.5C 323,67.1667 322,65.8333 321,64.5C 318.535,55.8457 316.702,47.0124 315.5,38C 316.826,35.8416 318.493,34.0082 320.5,32.5C 319.674,31.549 319.508,30.549 320,29.5C 323.298,28.0353 325.798,25.702 327.5,22.5C 342.076,21.7613 356.576,22.7613 371,25.5C 372.385,25.4857 373.551,25.1524 374.5,24.5C 383.715,18.7982 392.548,12.4649 401,5.5C 401.667,6.16667 402.333,6.83333 403,7.5C 405.089,6.00901 407.089,4.34234 409,2.5C 409.692,1.56323 409.525,0.896566 408.5,0.5 Z"/></g>
<g><path style="opacity:1" fill="#6c450a" d="M 450.5,80.5 C 455.83,81.6424 460.33,84.309 464,88.5C 465.683,93.4571 464.183,96.7905 459.5,98.5C 462.24,96.0997 463.073,93.0997 462,89.5C 457.825,86.8422 453.992,83.8422 450.5,80.5 Z"/></g>
<g><path style="opacity:1" fill="#f5d95e" d="M 430.5,67.5 C 437.082,71.0908 443.082,75.4242 448.5,80.5C 443.81,78.709 439.143,76.709 434.5,74.5C 432.188,72.701 430.855,70.3677 430.5,67.5 Z"/></g>
<g><path style="opacity:1" fill="#f5d863" d="M 338.5,71.5 C 344.708,80.5065 343.708,88.5065 335.5,95.5C 337.589,91.1555 339.256,86.6555 340.5,82C 339.724,78.5105 339.058,75.0105 338.5,71.5 Z"/></g>
<g><path style="opacity:1" fill="#653d07" d="M 350.5,37.5 C 345.473,37.0951 340.473,36.4285 335.5,35.5C 328.846,35.6487 326.68,38.982 329,45.5C 329.845,47.6115 330.678,49.6115 331.5,51.5C 332.929,58.5866 335.262,65.2532 338.5,71.5C 339.058,75.0105 339.724,78.5105 340.5,82C 339.256,86.6555 337.589,91.1555 335.5,95.5C 335.167,95.5 334.833,95.5 334.5,95.5C 334,91.8362 335.167,88.8362 338,86.5C 338.138,81.7145 337.305,77.0478 335.5,72.5C 331.742,69.8336 330.409,66.3336 331.5,62C 330.752,54.8984 328.752,48.2318 325.5,42C 325.942,37.0579 328.609,34.2246 333.5,33.5C 337.651,33.73 341.985,34.23 346.5,35C 348.32,35.2004 349.653,36.0337 350.5,37.5 Z"/></g>
<g><path style="opacity:1" fill="#e0bf58" d="M 421.5,24.5 C 423.417,38.1295 425.75,51.7962 428.5,65.5C 427.542,65.0472 426.708,64.3805 426,63.5C 425.278,54.9229 423.778,46.5896 421.5,38.5C 421.5,33.8333 421.5,29.1667 421.5,24.5 Z"/></g>
<g><path style="opacity:1" fill="#f8dc5e" d="M 421.5,24.5 C 421.5,29.1667 421.5,33.8333 421.5,38.5C 420.447,32.5829 419.114,26.5829 417.5,20.5C 415.827,18.9137 413.827,18.2471 411.5,18.5C 412.126,22.3754 410.459,24.2087 406.5,24C 405.833,25.3333 405.167,26.6667 404.5,28C 402.392,28.3599 400.392,29.0266 398.5,30C 391.883,34.2836 385.55,38.9503 379.5,44C 375.056,44.2731 370.723,44.4398 366.5,44.5C 362.487,42.9226 358.321,41.5893 354,40.5C 347.067,39.7586 340.234,38.9253 333.5,38C 333,38.5 332.5,39 332,39.5C 331.501,43.4862 331.334,47.4862 331.5,51.5C 330.678,49.6115 329.845,47.6115 329,45.5C 326.68,38.982 328.846,35.6487 335.5,35.5C 340.473,36.4285 345.473,37.0951 350.5,37.5C 350.833,37.5 351.167,37.5 351.5,37.5C 360.518,40.2762 369.851,41.4428 379.5,41C 383.751,38.0546 387.751,34.888 391.5,31.5C 392.167,31.5 392.5,31.1667 392.5,30.5C 399.282,26.2678 405.949,21.7678 412.5,17C 418.632,15.627 421.632,18.127 421.5,24.5 Z"/></g>
<g><path style="opacity:1" fill="#663f06" d="M 391.5,31.5 C 387.751,34.888 383.751,38.0546 379.5,41C 369.851,41.4428 360.518,40.2762 351.5,37.5C 352.93,37.5792 354.264,37.2458 355.5,36.5C 361.899,38.0208 368.399,39.0208 375,39.5C 377.734,38.2203 380.567,37.0537 383.5,36C 384.687,34.9805 385.687,33.8139 386.5,32.5C 388.045,31.5481 389.712,31.2148 391.5,31.5 Z"/></g>
<g><path style="opacity:1" fill="#633b07" d="M 449.5,80.5 C 449.167,80.5 448.833,80.5 448.5,80.5C 443.082,75.4242 437.082,71.0908 430.5,67.5C 430.167,66.5 429.5,65.8333 428.5,65.5C 425.75,51.7962 423.417,38.1295 421.5,24.5C 421.632,18.127 418.632,15.627 412.5,17C 405.949,21.7678 399.282,26.2678 392.5,30.5C 393.219,28.1119 394.885,26.6119 397.5,26C 399.833,22.3333 402.833,19.3333 406.5,17C 406.167,16.6667 405.833,16.3333 405.5,16C 410.754,14.7288 416.087,14.2288 421.5,14.5C 421.61,17.9618 422.776,20.9618 425,23.5C 425.082,28.5055 425.082,33.5055 425,38.5C 426.547,46.4497 427.88,54.4497 429,62.5C 430.706,63.3079 431.539,64.6412 431.5,66.5C 435.915,68.3934 440.249,70.5601 444.5,73C 446.415,75.3996 448.081,77.8996 449.5,80.5 Z"/></g>
<g><path style="opacity:1" fill="#fee649" d="M 421.5,38.5 C 423.778,46.5896 425.278,54.9229 426,63.5C 426.708,64.3805 427.542,65.0472 428.5,65.5C 429.5,65.8333 430.167,66.5 430.5,67.5C 430.855,70.3677 432.188,72.701 434.5,74.5C 439.143,76.709 443.81,78.709 448.5,80.5C 451.635,83.7776 453.468,87.7776 454,92.5C 454.483,91.552 454.649,90.552 454.5,89.5C 456.346,89.2222 457.68,89.8888 458.5,91.5C 456.123,94.3454 453.123,96.1787 449.5,97C 451.935,97.0748 452.602,97.9081 451.5,99.5C 441.099,103.982 431.099,108.982 421.5,114.5C 420.52,115.981 419.353,117.315 418,118.5C 415.808,126.867 413.641,135.2 411.5,143.5C 411.007,145.806 410.674,148.139 410.5,150.5C 409.833,151.167 409.167,151.833 408.5,152.5C 406.587,154.12 405.253,156.12 404.5,158.5C 402.712,158.785 401.045,158.452 399.5,157.5C 395.293,154.119 391.293,150.453 387.5,146.5C 386.583,145.873 385.583,145.539 384.5,145.5C 384.167,144.5 383.5,143.833 382.5,143.5C 382.762,142.022 382.429,140.689 381.5,139.5C 377.005,136.504 373.338,132.671 370.5,128C 356.833,127.667 343.167,127.333 329.5,127C 324.375,126.917 322.542,124.417 324,119.5C 326.947,116.841 328.614,113.508 329,109.5C 332.527,105.446 334.694,100.78 335.5,95.5C 343.708,88.5065 344.708,80.5065 338.5,71.5C 335.262,65.2532 332.929,58.5866 331.5,51.5C 331.334,47.4862 331.501,43.4862 332,39.5C 332.5,39 333,38.5 333.5,38C 340.234,38.9253 347.067,39.7586 354,40.5C 358.321,41.5893 362.487,42.9226 366.5,44.5C 370.723,44.4398 375.056,44.2731 379.5,44C 385.55,38.9503 391.883,34.2836 398.5,30C 400.392,29.0266 402.392,28.3599 404.5,28C 405.167,26.6667 405.833,25.3333 406.5,24C 410.459,24.2087 412.126,22.3754 411.5,18.5C 413.827,18.2471 415.827,18.9137 417.5,20.5C 419.114,26.5829 420.447,32.5829 421.5,38.5 Z"/></g>
<g><path style="opacity:1" fill="#fae256" d="M 448.5,80.5 C 448.833,80.5 449.167,80.5 449.5,80.5C 449.833,80.5 450.167,80.5 450.5,80.5C 453.992,83.8422 457.825,86.8422 462,89.5C 463.073,93.0997 462.24,96.0997 459.5,98.5C 457.883,99.038 456.216,99.3713 454.5,99.5C 453.5,99.5 452.5,99.5 451.5,99.5C 452.602,97.9081 451.935,97.0748 449.5,97C 453.123,96.1787 456.123,94.3454 458.5,91.5C 457.68,89.8888 456.346,89.2222 454.5,89.5C 454.649,90.552 454.483,91.552 454,92.5C 453.468,87.7776 451.635,83.7776 448.5,80.5 Z"/></g>
<g><path style="opacity:1" fill="#633b09" d="M 115.5,59.5 C 118.084,59.5688 120.084,60.7355 121.5,63C 126.932,63.8789 132.266,64.3789 137.5,64.5C 137.987,65.4461 138.32,66.4461 138.5,67.5C 136.766,71.9661 134.266,75.9661 131,79.5C 130.833,80.6667 130.667,81.8333 130.5,83C 132.01,87.5798 133.343,91.9132 134.5,96C 133.465,97.2737 132.298,98.4404 131,99.5C 126.537,98.7262 121.87,97.7262 117,96.5C 112.311,98.0101 107.811,100.01 103.5,102.5C 102.264,101.754 100.93,101.421 99.5,101.5C 99.5,95.5 99.5,89.5 99.5,83.5C 100.167,84.1667 100.833,84.8333 101.5,85.5C 101.5,86.1667 101.5,86.8333 101.5,87.5C 101.5,91.5 101.5,95.5 101.5,99.5C 105.817,98.0384 109.817,95.8718 113.5,93C 116.592,92.2642 119.592,92.4309 122.5,93.5C 124.949,94.7908 127.616,95.7908 130.5,96.5C 131.439,94.3079 131.105,92.3079 129.5,90.5C 129.105,86.815 128.938,83.1483 129,79.5C 131.698,75.633 134.198,71.633 136.5,67.5C 132.204,66.6725 127.871,66.1725 123.5,66C 120.064,64.7261 117.397,62.5594 115.5,59.5 Z"/></g>
<g><path style="opacity:1" fill="#6d4609" d="M 459.5,98.5 C 458.972,99.7206 458.305,100.887 457.5,102C 453.186,103.363 448.853,104.53 444.5,105.5C 447.964,103.683 451.298,101.683 454.5,99.5C 456.216,99.3713 457.883,99.038 459.5,98.5 Z"/></g>
<g><path style="opacity:1" fill="#623810" d="M 333.5,97.5 C 329.804,104.85 326.137,112.183 322.5,119.5C 319.773,122.826 320.106,125.992 323.5,129C 338.163,129.5 352.83,129.667 367.5,129.5C 372.474,134.139 377.474,138.805 382.5,143.5C 383.5,143.833 384.167,144.5 384.5,145.5C 389.297,150.798 394.297,155.965 399.5,161C 401.473,161.495 403.473,161.662 405.5,161.5C 403.571,164.135 400.905,164.968 397.5,164C 396.146,159.29 393.146,156.956 388.5,157C 389.908,159.292 389.741,161.459 388,163.5C 386.398,161.737 385.898,159.904 386.5,158C 383.825,156.139 380.825,155.139 377.5,155C 374.211,151.215 371.544,147.048 369.5,142.5C 370.305,140.528 371.639,139.028 373.5,138C 371.833,136.333 370.167,134.667 368.5,133C 355.135,133.45 341.802,133.616 328.5,133.5C 324.12,132.783 320.454,130.783 317.5,127.5C 316.5,130.242 317.5,132.242 320.5,133.5C 321.386,134.325 321.719,135.325 321.5,136.5C 319.5,136.5 317.5,136.5 315.5,136.5C 315.5,134.833 315.5,133.167 315.5,131.5C 313.708,131.634 312.042,131.301 310.5,130.5C 310.562,126.422 311.062,122.422 312,118.5C 315.897,116.512 316.397,113.846 313.5,110.5C 315.109,107.222 317.443,104.556 320.5,102.5C 321.354,103.522 322.354,104.355 323.5,105C 322.549,105.718 322.383,106.551 323,107.5C 324.264,105.393 326.097,104.393 328.5,104.5C 328.641,101.032 330.308,98.699 333.5,97.5 Z"/></g>
<g><path style="opacity:1" fill="#553626" d="M 91.5,54.5 C 86.4487,57.3089 81.4487,60.3089 76.5,63.5C 72.5008,69.219 72.6675,74.8856 77,80.5C 79.3856,84.219 82.3856,87.219 86,89.5C 87.3333,96.8333 88.6667,104.167 90,111.5C 90.3333,111.167 90.6667,110.833 91,110.5C 92.5,111.667 94,112.833 95.5,114C 94.8333,114.333 94.1667,114.667 93.5,115C 97.1667,115.667 100.833,115.667 104.5,115C 107.758,110.791 111.924,107.958 117,106.5C 124.099,106.985 130.933,108.318 137.5,110.5C 137.5,109.5 137.5,108.5 137.5,107.5C 140.265,107.202 142.765,106.202 145,104.5C 145.555,98.0554 145.055,91.7221 143.5,85.5C 143.292,79.7289 145.625,75.3956 150.5,72.5C 150.435,72.9382 150.601,73.2716 151,73.5C 151.708,72.6195 152.542,71.9528 153.5,71.5C 151.515,75.4556 149.015,79.1223 146,82.5C 147.467,89.3899 148.134,96.3899 148,103.5C 144.668,112.083 138.501,115.25 129.5,113C 125.859,111.731 122.192,110.564 118.5,109.5C 113.5,112.333 108.5,115.167 103.5,118C 96.6555,119.33 91.1555,117.164 87,111.5C 85.9583,104.528 84.9583,97.5284 84,90.5C 80.0342,87.536 76.3675,84.2026 73,80.5C 69.2791,73.433 70.1124,66.933 75.5,61C 80.4744,57.9529 85.8078,55.7862 91.5,54.5 Z"/></g>
<g><path style="opacity:1" fill="#d2ae5d" d="M 129.5,90.5 C 131.105,92.3079 131.439,94.3079 130.5,96.5C 127.616,95.7908 124.949,94.7908 122.5,93.5C 124.591,93.3184 126.591,93.6518 128.5,94.5C 129.429,93.3112 129.762,91.9778 129.5,90.5 Z"/></g>
<g><path style="opacity:1" fill="#6f4808" d="M 444.5,105.5 C 444.426,107.411 443.426,108.578 441.5,109C 437.095,111.372 432.428,112.872 427.5,113.5C 432.77,110.091 438.437,107.424 444.5,105.5 Z"/></g>
<g><path style="opacity:1" fill="#f5d863" d="M 451.5,99.5 C 452.5,99.5 453.5,99.5 454.5,99.5C 451.298,101.683 447.964,103.683 444.5,105.5C 438.437,107.424 432.77,110.091 427.5,113.5C 423.98,114.183 421.48,116.183 420,119.5C 417.432,127.712 414.598,135.712 411.5,143.5C 413.641,135.2 415.808,126.867 418,118.5C 419.353,117.315 420.52,115.981 421.5,114.5C 431.099,108.982 441.099,103.982 451.5,99.5 Z"/></g>
<g><path style="opacity:1" fill="#f7dc5e" d="M 334.5,95.5 C 334.833,95.5 335.167,95.5 335.5,95.5C 334.694,100.78 332.527,105.446 329,109.5C 328.614,113.508 326.947,116.841 324,119.5C 322.542,124.417 324.375,126.917 329.5,127C 343.167,127.333 356.833,127.667 370.5,128C 373.338,132.671 377.005,136.504 381.5,139.5C 382.429,140.689 382.762,142.022 382.5,143.5C 377.474,138.805 372.474,134.139 367.5,129.5C 353.339,128.669 339.006,128.169 324.5,128C 322.686,125.519 322.02,122.685 322.5,119.5C 326.137,112.183 329.804,104.85 333.5,97.5C 333.833,96.8333 334.167,96.1667 334.5,95.5 Z"/></g>
<g><path style="opacity:1" fill="#eece64" d="M 322.5,119.5 C 322.02,122.685 322.686,125.519 324.5,128C 339.006,128.169 353.339,128.669 367.5,129.5C 352.83,129.667 338.163,129.5 323.5,129C 320.106,125.992 319.773,122.826 322.5,119.5 Z"/></g>
<g><path style="opacity:0.871" fill="#543a2d" d="M 309.5,110.5 C 307.906,117.397 308.239,124.064 310.5,130.5C 311.346,138.176 316.013,142.676 324.5,144C 337.826,143.734 351.16,143.734 364.5,144C 370.454,148.958 375.787,154.624 380.5,161C 380.272,161.399 379.938,161.565 379.5,161.5C 374.731,156.229 369.731,151.062 364.5,146C 350.5,145.667 336.5,145.333 322.5,145C 309.17,140.186 303.67,130.686 306,116.5C 306.941,114.273 308.108,112.273 309.5,110.5 Z"/></g>
<g><path style="opacity:1" fill="#6f4709" d="M 427.5,113.5 C 427.611,114.117 427.944,114.617 428.5,115C 422.484,117.854 419.65,122.687 420,129.5C 419.333,130.833 418.333,131.833 417,132.5C 415.436,138.781 413.269,144.781 410.5,150.5C 410.674,148.139 411.007,145.806 411.5,143.5C 414.598,135.712 417.432,127.712 420,119.5C 421.48,116.183 423.98,114.183 427.5,113.5 Z"/></g>
<g><path style="opacity:1" fill="#fee649" d="M 259.5,137.5 C 259.06,144.441 261.06,150.441 265.5,155.5C 266.325,156.386 267.325,156.719 268.5,156.5C 269.551,161.157 271.218,165.49 273.5,169.5C 274.638,172.513 274.804,175.513 274,178.5C 274.779,181.314 276.112,182.98 278,183.5C 278.687,185.568 278.52,187.568 277.5,189.5C 277.833,189.833 278.167,190.167 278.5,190.5C 279.386,189.675 279.719,188.675 279.5,187.5C 280.833,187.5 282.167,187.5 283.5,187.5C 282.761,191.746 284.427,194.413 288.5,195.5C 288.414,196.496 288.748,197.329 289.5,198C 304.174,204.669 319.508,209.169 335.5,211.5C 336.335,212.943 337.668,213.943 339.5,214.5C 345.522,216.066 351.356,218.066 357,220.5C 358.872,223.205 359.705,226.205 359.5,229.5C 358.591,233.377 357.258,237.044 355.5,240.5C 353.833,240.5 352.167,240.5 350.5,240.5C 350.5,241.833 350.5,243.167 350.5,244.5C 347.452,246.033 344.785,248.2 342.5,251C 340.793,251.195 339.126,251.195 337.5,251C 337.038,252.722 336.872,254.555 337,256.5C 335.736,258.607 333.903,259.607 331.5,259.5C 330.315,263.692 327.649,266.692 323.5,268.5C 322.571,269.689 322.238,271.022 322.5,272.5C 322.167,273.167 321.833,273.833 321.5,274.5C 318.5,276.833 315.833,279.5 313.5,282.5C 312.662,282.842 312.328,283.508 312.5,284.5C 311.883,284.611 311.383,284.944 311,285.5C 310.667,307.5 310.333,329.5 310,351.5C 307.528,358.321 302.694,360.821 295.5,359C 290.338,356.466 285.005,354.133 279.5,352C 278.315,350.647 276.981,349.48 275.5,348.5C 271.144,347.237 266.978,345.57 263,343.5C 261.187,340.96 258.687,339.96 255.5,340.5C 252.792,337.623 249.792,334.957 246.5,332.5C 233.391,327.221 221.391,329.054 210.5,338C 207.833,338.333 205.167,338.667 202.5,339C 200.574,339.422 199.574,340.589 199.5,342.5C 197.208,344.267 194.542,345.267 191.5,345.5C 185.905,346.088 180.571,347.588 175.5,350C 169.986,350.93 164.652,350.43 159.5,348.5C 159.5,348.167 159.5,347.833 159.5,347.5C 159.283,344.565 158.617,341.731 157.5,339C 158.57,332.538 159.237,326.038 159.5,319.5C 160.748,318.666 161.415,317.333 161.5,315.5C 163.588,301.797 165.921,288.131 168.5,274.5C 168.333,273.5 168.167,272.5 168,271.5C 163.577,264.989 158.911,258.655 154,252.5C 152.871,250.859 151.371,249.859 149.5,249.5C 149.5,249.167 149.5,248.833 149.5,248.5C 147.121,244.14 144.788,239.806 142.5,235.5C 141.5,235.5 140.5,235.5 139.5,235.5C 135.886,229.869 132.219,224.202 128.5,218.5C 126.642,213.674 127.309,209.34 130.5,205.5C 134.551,203.317 138.885,201.817 143.5,201C 157.17,199.357 170.503,197.19 183.5,194.5C 189.211,193.812 194.544,192.478 199.5,190.5C 200.167,190.5 200.5,190.167 200.5,189.5C 200.833,189.5 201.167,189.5 201.5,189.5C 204.763,186.417 208.263,183.417 212,180.5C 213.039,174.757 215.873,170.09 220.5,166.5C 221.452,164.955 221.785,163.288 221.5,161.5C 224.785,160.05 227.285,157.717 229,154.5C 230.128,152.655 230.628,150.655 230.5,148.5C 232.735,147.772 234.568,146.439 236,144.5C 236.99,141.374 238.156,138.374 239.5,135.5C 242.693,134.989 245.859,134.322 249,133.5C 252.989,133.771 256.489,135.104 259.5,137.5 Z"/></g>
<g><path style="opacity:1" fill="#603416" d="M 274.5,131.5 C 278.089,135.982 279.922,140.982 280,146.5C 287.67,159.17 294.837,172.17 301.5,185.5C 308.769,187.563 316.102,189.396 323.5,191C 332.631,195.598 342.298,198.598 352.5,200C 357.173,203.009 361.839,206.009 366.5,209C 367.249,210.734 367.749,212.567 368,214.5C 368.414,214.043 368.914,213.709 369.5,213.5C 373.627,217.99 375.627,223.323 375.5,229.5C 374.088,234.027 372.921,238.694 372,243.5C 366.987,250.014 361.153,255.68 354.5,260.5C 355.393,256.658 357.726,254.158 361.5,253C 360.833,252.667 360.167,252.333 359.5,252C 360.833,251 362.167,250 363.5,249C 361.903,246.356 360.069,246.523 358,249.5C 353.613,248.836 352.78,250.336 355.5,254C 352.388,254.625 350.555,256.458 350,259.5C 349.667,258.5 349.333,257.5 349,256.5C 348.282,257.451 347.449,257.617 346.5,257C 347.328,256.085 348.328,255.419 349.5,255C 348.941,254.275 348.608,253.442 348.5,252.5C 350.452,250.874 351.786,248.874 352.5,246.5C 356.572,244.628 360.572,242.461 364.5,240C 363.075,238.286 363.408,236.953 365.5,236C 364.718,233.26 364.218,230.426 364,227.5C 363.764,225.881 362.931,224.881 361.5,224.5C 360.833,223.167 360.167,221.833 359.5,220.5C 359.67,219.178 359.337,218.011 358.5,217C 354.425,216.127 350.758,214.461 347.5,212C 341.791,210.876 336.125,209.542 330.5,208C 326.718,204.117 322.052,202.45 316.5,203C 310.409,201.454 304.409,199.621 298.5,197.5C 297.817,197.863 297.15,198.196 296.5,198.5C 296.167,198.5 295.833,198.5 295.5,198.5C 294.7,196.259 293.034,195.259 290.5,195.5C 288.136,191.58 286.636,187.246 286,182.5C 284.513,180.015 282.679,177.848 280.5,176C 280.833,175.667 281.167,175.333 281.5,175C 279.821,173.174 278.654,171.008 278,168.5C 277.617,169.056 277.117,169.389 276.5,169.5C 275.231,163.635 273.398,157.968 271,152.5C 267.372,145.31 263.205,138.476 258.5,132C 254.47,130.935 250.47,129.768 246.5,128.5C 236.673,131.7 231.006,138.366 229.5,148.5C 227.154,151.871 224.821,155.204 222.5,158.5C 221.417,158.539 220.417,158.873 219.5,159.5C 217.5,162.833 215.5,166.167 213.5,169.5C 212.086,170.624 210.586,171.624 209,172.5C 207.31,178.389 204.143,183.222 199.5,187C 200.252,187.671 200.586,188.504 200.5,189.5C 199.258,188.957 197.925,188.623 196.5,188.5C 174.902,191.979 153.235,195.312 131.5,198.5C 128.478,200.688 125.978,203.355 124,206.5C 123.333,210.5 123.333,214.5 124,218.5C 125.759,221.608 126.592,224.941 126.5,228.5C 130.251,228.082 132.418,229.749 133,233.5C 133.333,233.167 133.667,232.833 134,232.5C 134.981,235.12 136.147,237.62 137.5,240C 135.839,242.424 136.339,244.258 139,245.5C 139.333,244.833 139.667,244.167 140,243.5C 142.73,246.073 145.23,248.74 147.5,251.5C 148.86,252.18 150.193,252.847 151.5,253.5C 155.262,256.929 158.262,260.929 160.5,265.5C 162.671,269.672 164.005,274.172 164.5,279C 162.258,291.947 159.425,304.78 156,317.5C 155.579,325.051 154.746,332.551 153.5,340C 153.833,341.833 154.167,343.667 154.5,345.5C 157.035,347.4 158.702,349.9 159.5,353C 169.127,355.637 178.293,354.803 187,350.5C 188.107,350.585 189.107,350.919 190,351.5C 190.948,349.43 192.448,347.93 194.5,347C 207.977,342.476 221.31,337.976 234.5,333.5C 246.046,337.94 257.046,343.44 267.5,350C 269.866,350.44 272.199,350.94 274.5,351.5C 274.703,353.044 275.37,354.378 276.5,355.5C 281.117,356.139 284.784,358.305 287.5,362C 293.902,364.43 300.568,365.096 307.5,364C 309.348,361.821 311.515,359.987 314,358.5C 314.522,333.04 314.355,307.706 313.5,282.5C 315.833,279.5 318.5,276.833 321.5,274.5C 321.338,276.527 321.505,278.527 322,280.5C 324.408,278.581 326.741,277.248 329,276.5C 330.255,277.211 331.421,278.044 332.5,279C 330.465,281.333 328.298,283.5 326,285.5C 325.73,295.515 325.23,305.515 324.5,315.5C 325.594,329.151 325.761,342.818 325,356.5C 322.95,359.148 321.784,362.148 321.5,365.5C 318.552,368.612 315.385,371.612 312,374.5C 311.586,374.043 311.086,373.709 310.5,373.5C 306.39,375.389 302.057,376.389 297.5,376.5C 289.832,375.072 282.499,372.405 275.5,368.5C 274.614,367.675 274.281,366.675 274.5,365.5C 268.85,365.672 264.184,363.672 260.5,359.5C 260.047,358.542 259.381,357.708 258.5,357C 253.907,356.789 250.24,354.956 247.5,351.5C 248.991,350.756 250.491,350.09 252,349.5C 252.617,348.551 252.451,347.718 251.5,347C 244.013,347.252 236.513,346.752 229,345.5C 227.7,346.707 226.2,347.374 224.5,347.5C 224.5,348.5 224.5,349.5 224.5,350.5C 219.131,352.76 213.464,354.26 207.5,355C 206.833,355.667 206.167,356.333 205.5,357C 199.704,357.274 194.037,358.274 188.5,360C 186.68,360.2 185.347,361.034 184.5,362.5C 181.877,364.265 178.877,364.932 175.5,364.5C 175.5,365.5 175.5,366.5 175.5,367.5C 168.939,368.081 162.605,367.248 156.5,365C 156.833,364.667 157.167,364.333 157.5,364C 156.167,363.667 154.833,363.333 153.5,363C 151.685,358.855 148.851,355.688 145,353.5C 144.277,348.717 143.11,344.05 141.5,339.5C 142.72,335.256 143.887,330.923 145,326.5C 145.499,321.511 145.666,316.511 145.5,311.5C 147.797,301.686 150.464,291.853 153.5,282C 152.453,278.025 151.12,274.191 149.5,270.5C 148.022,270.762 146.689,270.429 145.5,269.5C 134.293,255.894 124.46,241.894 116,227.5C 112.395,217.368 112.728,207.368 117,197.5C 118.529,196.271 119.696,194.771 120.5,193C 122.332,192.252 123.999,191.252 125.5,190C 126.744,189.544 127.577,190.044 128,191.5C 131.492,189.505 134.992,187.672 138.5,186C 142.555,185.768 146.555,185.268 150.5,184.5C 153.756,185.081 156.923,184.415 160,182.5C 162.42,183.488 164.753,183.155 167,181.5C 167.333,181.833 167.667,182.167 168,182.5C 176.426,180.983 184.926,179.65 193.5,178.5C 193.887,177.28 194.72,176.613 196,176.5C 197.44,177.148 198.94,177.481 200.5,177.5C 200.773,175.549 200.107,174.049 198.5,173C 199.289,170.733 199.956,168.4 200.5,166C 203.93,163.287 205.597,159.953 205.5,156C 211.373,151.425 216.206,145.925 220,139.5C 220.333,140.167 220.667,140.833 221,141.5C 225.052,134.327 229.552,127.66 234.5,121.5C 241.246,117.917 248.579,117.084 256.5,119C 260.092,121.562 263.759,124.062 267.5,126.5C 266.565,129.06 267.399,129.726 270,128.5C 270.908,130.439 272.408,131.439 274.5,131.5 Z"/></g>
<g><path style="opacity:1" fill="#633d05" d="M 276.5,169.5 C 271.357,158.548 265.691,147.881 259.5,137.5C 257.526,133.502 254.192,131.502 249.5,131.5C 245.515,131.489 242.182,132.822 239.5,135.5C 236.117,139.553 233.117,143.886 230.5,148.5C 230.167,148.5 229.833,148.5 229.5,148.5C 231.006,138.366 236.673,131.7 246.5,128.5C 250.47,129.768 254.47,130.935 258.5,132C 263.205,138.476 267.372,145.31 271,152.5C 273.398,157.968 275.231,163.635 276.5,169.5 Z"/></g>
<g><path style="opacity:1" fill="#e9cc62" d="M 239.5,135.5 C 238.156,138.374 236.99,141.374 236,144.5C 234.568,146.439 232.735,147.772 230.5,148.5C 233.117,143.886 236.117,139.553 239.5,135.5 Z"/></g>
<g><path style="opacity:1" fill="#f5db68" d="M 259.5,137.5 C 256.489,135.104 252.989,133.771 249,133.5C 245.859,134.322 242.693,134.989 239.5,135.5C 242.182,132.822 245.515,131.489 249.5,131.5C 254.192,131.502 257.526,133.502 259.5,137.5 Z"/></g>
<g><path style="opacity:1" fill="#edd05b" d="M 229.5,148.5 C 229.833,148.5 230.167,148.5 230.5,148.5C 230.628,150.655 230.128,152.655 229,154.5C 227.285,157.717 224.785,160.05 221.5,161.5C 221.557,160.391 221.89,159.391 222.5,158.5C 224.821,155.204 227.154,151.871 229.5,148.5 Z"/></g>
<g><path style="opacity:1" fill="#f4d95d" d="M 384.5,145.5 C 385.583,145.539 386.583,145.873 387.5,146.5C 391.293,150.453 395.293,154.119 399.5,157.5C 401.045,158.452 402.712,158.785 404.5,158.5C 405.253,156.12 406.587,154.12 408.5,152.5C 408.095,155.715 407.095,158.715 405.5,161.5C 403.473,161.662 401.473,161.495 399.5,161C 394.297,155.965 389.297,150.798 384.5,145.5 Z"/></g>
<g><path style="opacity:1" fill="#57341f" d="M 274.5,129.5 C 274.5,130.167 274.5,130.833 274.5,131.5C 272.408,131.439 270.908,130.439 270,128.5C 267.399,129.726 266.565,129.06 267.5,126.5C 263.759,124.062 260.092,121.562 256.5,119C 248.579,117.084 241.246,117.917 234.5,121.5C 229.552,127.66 225.052,134.327 221,141.5C 220.667,140.833 220.333,140.167 220,139.5C 216.206,145.925 211.373,151.425 205.5,156C 205.597,159.953 203.93,163.287 200.5,166C 199.956,168.4 199.289,170.733 198.5,173C 200.107,174.049 200.773,175.549 200.5,177.5C 198.94,177.481 197.44,177.148 196,176.5C 194.72,176.613 193.887,177.28 193.5,178.5C 184.926,179.65 176.426,180.983 168,182.5C 167.667,182.167 167.333,181.833 167,181.5C 164.753,183.155 162.42,183.488 160,182.5C 156.923,184.415 153.756,185.081 150.5,184.5C 146.555,185.268 142.555,185.768 138.5,186C 134.992,187.672 131.492,189.505 128,191.5C 127.577,190.044 126.744,189.544 125.5,190C 123.999,191.252 122.332,192.252 120.5,193C 119.696,194.771 118.529,196.271 117,197.5C 112.728,207.368 112.395,217.368 116,227.5C 124.46,241.894 134.293,255.894 145.5,269.5C 146.689,270.429 148.022,270.762 149.5,270.5C 151.12,274.191 152.453,278.025 153.5,282C 150.464,291.853 147.797,301.686 145.5,311.5C 147.052,300.854 148.386,290.187 149.5,279.5C 138.142,263.815 126.809,248.148 115.5,232.5C 116.043,232.44 116.376,232.107 116.5,231.5C 114.856,228.362 113.023,225.362 111,222.5C 110.337,219.023 109.837,215.523 109.5,212C 110.201,207.406 111.201,202.906 112.5,198.5C 116.204,192.139 121.537,187.473 128.5,184.5C 128.369,185.239 128.536,185.906 129,186.5C 147.228,182.991 165.395,179.658 183.5,176.5C 186.362,175.868 189.196,174.868 192,173.5C 202.914,158.007 213.581,142.34 224,126.5C 236.436,113.183 250.603,111.016 266.5,120C 269.777,122.766 272.443,125.933 274.5,129.5 Z"/></g>
<g><path style="opacity:1" fill="#f3d85f" d="M 221.5,161.5 C 221.785,163.288 221.452,164.955 220.5,166.5C 215.873,170.09 213.039,174.757 212,180.5C 208.263,183.417 204.763,186.417 201.5,189.5C 207.811,179.865 214.477,170.532 221.5,161.5 Z"/></g>
<g><path style="opacity:1" fill="#653f07" d="M 222.5,158.5 C 221.89,159.391 221.557,160.391 221.5,161.5C 214.477,170.532 207.811,179.865 201.5,189.5C 201.167,189.5 200.833,189.5 200.5,189.5C 200.586,188.504 200.252,187.671 199.5,187C 204.143,183.222 207.31,178.389 209,172.5C 210.586,171.624 212.086,170.624 213.5,169.5C 215.5,166.167 217.5,162.833 219.5,159.5C 220.417,158.873 221.417,158.539 222.5,158.5 Z"/></g>
<g><path style="opacity:1" fill="#f7dd58" d="M 259.5,137.5 C 265.691,147.881 271.357,158.548 276.5,169.5C 280.5,178.167 284.5,186.833 288.5,195.5C 284.427,194.413 282.761,191.746 283.5,187.5C 282.167,187.5 280.833,187.5 279.5,187.5C 279.719,188.675 279.386,189.675 278.5,190.5C 278.167,190.167 277.833,189.833 277.5,189.5C 278.52,187.568 278.687,185.568 278,183.5C 276.112,182.98 274.779,181.314 274,178.5C 274.804,175.513 274.638,172.513 273.5,169.5C 271.218,165.49 269.551,161.157 268.5,156.5C 267.325,156.719 266.325,156.386 265.5,155.5C 261.06,150.441 259.06,144.441 259.5,137.5 Z"/></g>
<g><path style="opacity:0.612" fill="#624a3d" d="M 183.5,176.5 C 165.395,179.658 147.228,182.991 129,186.5C 128.536,185.906 128.369,185.239 128.5,184.5C 146.71,181.089 165.043,178.422 183.5,176.5 Z"/></g>
<g><path style="opacity:1" fill="#663f05" d="M 295.5,198.5 C 292.978,197.989 290.645,196.989 288.5,195.5C 284.5,186.833 280.5,178.167 276.5,169.5C 277.117,169.389 277.617,169.056 278,168.5C 278.654,171.008 279.821,173.174 281.5,175C 281.167,175.333 280.833,175.667 280.5,176C 282.679,177.848 284.513,180.015 286,182.5C 286.636,187.246 288.136,191.58 290.5,195.5C 293.034,195.259 294.7,196.259 295.5,198.5 Z"/></g>
<g><path style="opacity:1" fill="#d7b64e" d="M 199.5,190.5 C 194.544,192.478 189.211,193.812 183.5,194.5C 178.848,194.998 174.181,195.331 169.5,195.5C 179.326,193.554 189.326,191.887 199.5,190.5 Z"/></g>
<g><path style="opacity:1" fill="#d0ad4d" d="M 164.5,195.5 C 162.438,196.776 160.104,197.61 157.5,198C 149.527,199.163 141.527,199.997 133.5,200.5C 143.686,198.734 154.019,197.068 164.5,195.5 Z"/></g>
<g><path style="opacity:1" fill="#f3d662" d="M 288.5,195.5 C 290.645,196.989 292.978,197.989 295.5,198.5C 295.833,198.5 296.167,198.5 296.5,198.5C 309.411,203.026 322.411,207.359 335.5,211.5C 319.508,209.169 304.174,204.669 289.5,198C 288.748,197.329 288.414,196.496 288.5,195.5 Z"/></g>
<g><path style="opacity:1" fill="#6a4406" d="M 359.5,220.5 C 351.993,216.329 343.993,213.329 335.5,211.5C 322.411,207.359 309.411,203.026 296.5,198.5C 297.15,198.196 297.817,197.863 298.5,197.5C 304.409,199.621 310.409,201.454 316.5,203C 322.052,202.45 326.718,204.117 330.5,208C 336.125,209.542 341.791,210.876 347.5,212C 350.758,214.461 354.425,216.127 358.5,217C 359.337,218.011 359.67,219.178 359.5,220.5 Z"/></g>
<g><path style="opacity:1" fill="#f6da65" d="M 183.5,194.5 C 170.503,197.19 157.17,199.357 143.5,201C 138.885,201.817 134.551,203.317 130.5,205.5C 127.309,209.34 126.642,213.674 128.5,218.5C 132.219,224.202 135.886,229.869 139.5,235.5C 134.291,230.105 129.791,224.105 126,217.5C 124.181,209.813 126.681,204.146 133.5,200.5C 141.527,199.997 149.527,199.163 157.5,198C 160.104,197.61 162.438,196.776 164.5,195.5C 166.167,195.5 167.833,195.5 169.5,195.5C 174.181,195.331 178.848,194.998 183.5,194.5 Z"/></g>
<g><path style="opacity:0.522" fill="#584135" d="M 112.5,198.5 C 111.201,202.906 110.201,207.406 109.5,212C 109.837,215.523 110.337,219.023 111,222.5C 113.023,225.362 114.856,228.362 116.5,231.5C 116.376,232.107 116.043,232.44 115.5,232.5C 108.984,225.086 106.817,216.419 109,206.5C 109.387,203.401 110.554,200.734 112.5,198.5 Z"/></g>
<g><path style="opacity:1" fill="#f5d967" d="M 335.5,211.5 C 343.993,213.329 351.993,216.329 359.5,220.5C 360.167,221.833 360.833,223.167 361.5,224.5C 362.985,231.302 360.985,236.635 355.5,240.5C 357.258,237.044 358.591,233.377 359.5,229.5C 359.705,226.205 358.872,223.205 357,220.5C 351.356,218.066 345.522,216.066 339.5,214.5C 337.668,213.943 336.335,212.943 335.5,211.5 Z"/></g>
<g><path style="opacity:1" fill="#f6db66" d="M 139.5,235.5 C 140.5,235.5 141.5,235.5 142.5,235.5C 144.788,239.806 147.121,244.14 149.5,248.5C 145.408,244.742 142.074,240.409 139.5,235.5 Z"/></g>
<g><path style="opacity:1" fill="#633b09" d="M 200.5,189.5 C 200.5,190.167 200.167,190.5 199.5,190.5C 189.326,191.887 179.326,193.554 169.5,195.5C 167.833,195.5 166.167,195.5 164.5,195.5C 154.019,197.068 143.686,198.734 133.5,200.5C 126.681,204.146 124.181,209.813 126,217.5C 129.791,224.105 134.291,230.105 139.5,235.5C 142.074,240.409 145.408,244.742 149.5,248.5C 149.5,248.833 149.5,249.167 149.5,249.5C 150.6,250.605 151.267,251.938 151.5,253.5C 150.193,252.847 148.86,252.18 147.5,251.5C 145.23,248.74 142.73,246.073 140,243.5C 139.667,244.167 139.333,244.833 139,245.5C 136.339,244.258 135.839,242.424 137.5,240C 136.147,237.62 134.981,235.12 134,232.5C 133.667,232.833 133.333,233.167 133,233.5C 132.418,229.749 130.251,228.082 126.5,228.5C 126.592,224.941 125.759,221.608 124,218.5C 123.333,214.5 123.333,210.5 124,206.5C 125.978,203.355 128.478,200.688 131.5,198.5C 153.235,195.312 174.902,191.979 196.5,188.5C 197.925,188.623 199.258,188.957 200.5,189.5 Z"/></g>
<g><path style="opacity:1" fill="#ecd15b" d="M 355.5,240.5 C 345.108,251.893 334.108,262.56 322.5,272.5C 322.238,271.022 322.571,269.689 323.5,268.5C 327.649,266.692 330.315,263.692 331.5,259.5C 333.903,259.607 335.736,258.607 337,256.5C 336.872,254.555 337.038,252.722 337.5,251C 339.126,251.195 340.793,251.195 342.5,251C 344.785,248.2 347.452,246.033 350.5,244.5C 350.5,243.167 350.5,241.833 350.5,240.5C 352.167,240.5 353.833,240.5 355.5,240.5 Z"/></g>
<g><path style="opacity:1" fill="#613712" d="M 361.5,224.5 C 362.931,224.881 363.764,225.881 364,227.5C 364.218,230.426 364.718,233.26 365.5,236C 363.408,236.953 363.075,238.286 364.5,240C 360.572,242.461 356.572,244.628 352.5,246.5C 351.786,248.874 350.452,250.874 348.5,252.5C 348.608,253.442 348.941,254.275 349.5,255C 348.328,255.419 347.328,256.085 346.5,257C 347.449,257.617 348.282,257.451 349,256.5C 349.333,257.5 349.667,258.5 350,259.5C 350.555,256.458 352.388,254.625 355.5,254C 352.78,250.336 353.613,248.836 358,249.5C 360.069,246.523 361.903,246.356 363.5,249C 362.167,250 360.833,251 359.5,252C 360.167,252.333 360.833,252.667 361.5,253C 357.726,254.158 355.393,256.658 354.5,260.5C 351.581,261.293 348.915,262.626 346.5,264.5C 342.872,268.301 339.372,272.301 336,276.5C 333.803,272.823 334.97,270.823 339.5,270.5C 336.407,263.873 333.407,263.873 330.5,270.5C 327.451,271.845 324.451,273.178 321.5,274.5C 321.833,273.833 322.167,273.167 322.5,272.5C 334.108,262.56 345.108,251.893 355.5,240.5C 360.985,236.635 362.985,231.302 361.5,224.5 Z"/></g>
<g><path style="opacity:1" fill="#f0d263" d="M 149.5,249.5 C 151.371,249.859 152.871,250.859 154,252.5C 158.911,258.655 163.577,264.989 168,271.5C 168.167,272.5 168.333,273.5 168.5,274.5C 165.921,288.131 163.588,301.797 161.5,315.5C 161.415,317.333 160.748,318.666 159.5,319.5C 161.831,304.848 164.164,290.182 166.5,275.5C 166.543,270.915 164.543,267.582 160.5,265.5C 158.262,260.929 155.262,256.929 151.5,253.5C 151.267,251.938 150.6,250.605 149.5,249.5 Z"/></g>
<g><path style="opacity:0.302" fill="#5b4539" d="M 149.5,279.5 C 148.386,290.187 147.052,300.854 145.5,311.5C 144.047,318.216 142.38,324.882 140.5,331.5C 142.872,313.932 145.872,296.599 149.5,279.5 Z"/></g>
<g><path style="opacity:1" fill="#593119" d="M 354.5,260.5 C 346.422,269.914 337.755,278.914 328.5,287.5C 328.36,309.807 328.193,332.14 328,354.5C 327.329,359.194 325.162,362.861 321.5,365.5C 321.784,362.148 322.95,359.148 325,356.5C 325.761,342.818 325.594,329.151 324.5,315.5C 325.23,305.515 325.73,295.515 326,285.5C 328.298,283.5 330.465,281.333 332.5,279C 331.421,278.044 330.255,277.211 329,276.5C 326.741,277.248 324.408,278.581 322,280.5C 321.505,278.527 321.338,276.527 321.5,274.5C 324.451,273.178 327.451,271.845 330.5,270.5C 333.407,263.873 336.407,263.873 339.5,270.5C 334.97,270.823 333.803,272.823 336,276.5C 339.372,272.301 342.872,268.301 346.5,264.5C 348.915,262.626 351.581,261.293 354.5,260.5 Z"/></g>
<g><path style="opacity:1" fill="#f4d85e" d="M 255.5,340.5 C 248.96,337.313 242.46,333.979 236,330.5C 223.846,334.607 211.679,338.607 199.5,342.5C 199.574,340.589 200.574,339.422 202.5,339C 205.167,338.667 207.833,338.333 210.5,338C 221.391,329.054 233.391,327.221 246.5,332.5C 249.792,334.957 252.792,337.623 255.5,340.5 Z"/></g>
<g><path style="opacity:1" fill="#f1d463" d="M 159.5,319.5 C 159.237,326.038 158.57,332.538 157.5,339C 158.617,341.731 159.283,344.565 159.5,347.5C 158.21,346.942 157.377,345.942 157,344.5C 155.961,335.846 156.795,327.513 159.5,319.5 Z"/></g>
<g><path style="opacity:0.275" fill="#5a4638" d="M 124.5,352.5 C 123.167,351.5 121.833,350.5 120.5,349.5C 117.668,346.718 114.168,345.385 110,345.5C 102.42,346.77 94.9203,348.436 87.5,350.5C 86.2867,350.253 85.62,349.586 85.5,348.5C 86.1174,348.611 86.6174,348.944 87,349.5C 96.494,345.801 106.327,344.301 116.5,345C 120.344,346.347 123.011,348.847 124.5,352.5 Z"/></g>
<g><path style="opacity:1" fill="#56331e" d="M 260.5,359.5 C 256.522,358.181 252.522,356.848 248.5,355.5C 247.893,355.624 247.56,355.957 247.5,356.5C 243.134,353.65 238.467,351.317 233.5,349.5C 223.126,352.847 212.793,356.181 202.5,359.5C 196.648,360.962 190.648,361.962 184.5,362.5C 185.347,361.034 186.68,360.2 188.5,360C 194.037,358.274 199.704,357.274 205.5,357C 206.167,356.333 206.833,355.667 207.5,355C 213.464,354.26 219.131,352.76 224.5,350.5C 224.5,349.5 224.5,348.5 224.5,347.5C 226.2,347.374 227.7,346.707 229,345.5C 236.513,346.752 244.013,347.252 251.5,347C 252.451,347.718 252.617,348.551 252,349.5C 250.491,350.09 248.991,350.756 247.5,351.5C 250.24,354.956 253.907,356.789 258.5,357C 259.381,357.708 260.047,358.542 260.5,359.5 Z"/></g>
<g><path style="opacity:1" fill="#653d08" d="M 160.5,265.5 C 164.543,267.582 166.543,270.915 166.5,275.5C 164.164,290.182 161.831,304.848 159.5,319.5C 156.795,327.513 155.961,335.846 157,344.5C 157.377,345.942 158.21,346.942 159.5,347.5C 159.5,347.833 159.5,348.167 159.5,348.5C 160.343,350.173 161.676,351.34 163.5,352C 167.5,352.667 171.5,352.667 175.5,352C 181.046,350.051 186.379,347.884 191.5,345.5C 194.542,345.267 197.208,344.267 199.5,342.5C 211.679,338.607 223.846,334.607 236,330.5C 242.46,333.979 248.96,337.313 255.5,340.5C 261.713,344.438 268.046,348.104 274.5,351.5C 272.199,350.94 269.866,350.44 267.5,350C 257.046,343.44 246.046,337.94 234.5,333.5C 221.31,337.976 207.977,342.476 194.5,347C 192.448,347.93 190.948,349.43 190,351.5C 189.107,350.919 188.107,350.585 187,350.5C 178.293,354.803 169.127,355.637 159.5,353C 158.702,349.9 157.035,347.4 154.5,345.5C 154.167,343.667 153.833,341.833 153.5,340C 154.746,332.551 155.579,325.051 156,317.5C 159.425,304.78 162.258,291.947 164.5,279C 164.005,274.172 162.671,269.672 160.5,265.5 Z"/></g>
<g><path style="opacity:1" fill="#ebcd5f" d="M 191.5,345.5 C 186.379,347.884 181.046,350.051 175.5,352C 171.5,352.667 167.5,352.667 163.5,352C 161.676,351.34 160.343,350.173 159.5,348.5C 164.652,350.43 169.986,350.93 175.5,350C 180.571,347.588 185.905,346.088 191.5,345.5 Z"/></g>
<g><path style="opacity:1" fill="#ebcf5a" d="M 312.5,284.5 C 312.667,307.836 312.5,331.169 312,354.5C 307.405,362.208 300.905,364.375 292.5,361C 286.631,357.566 280.631,354.399 274.5,351.5C 268.046,348.104 261.713,344.438 255.5,340.5C 258.687,339.96 261.187,340.96 263,343.5C 266.978,345.57 271.144,347.237 275.5,348.5C 276.981,349.48 278.315,350.647 279.5,352C 285.005,354.133 290.338,356.466 295.5,359C 302.694,360.821 307.528,358.321 310,351.5C 310.333,329.5 310.667,307.5 311,285.5C 311.383,284.944 311.883,284.611 312.5,284.5 Z"/></g>
<g><path style="opacity:0.961" fill="#503424" d="M 74.5,341.5 C 70.5564,340.685 66.8897,339.185 63.5,337C 56.2361,335.548 50.7361,338.048 47,344.5C 46.0784,352.207 44.9117,359.874 43.5,367.5C 43.8178,368.647 44.4844,369.481 45.5,370C 41.7988,372.368 38.7988,375.368 36.5,379C 32.5783,381.11 28.5783,382.943 24.5,384.5C 22.4535,388.969 20.7869,393.635 19.5,398.5C 21.557,401.606 23.3903,404.939 25,408.5C 27.154,409.23 29.3206,409.897 31.5,410.5C 31.5,410.833 31.5,411.167 31.5,411.5C 35.8566,414.124 40.5233,416.458 45.5,418.5C 46.2975,418.957 46.6309,419.624 46.5,420.5C 39.0717,417.621 31.7384,414.454 24.5,411C 15.5789,402.317 15.2456,393.317 23.5,384C 29.1667,379.833 34.8333,375.667 40.5,371.5C 41.844,362.872 43.0107,354.206 44,345.5C 52.6469,331.621 62.8136,330.288 74.5,341.5 Z"/></g>
<g><path style="opacity:1" fill="#623b07" d="M 313.5,282.5 C 314.355,307.706 314.522,333.04 314,358.5C 311.515,359.987 309.348,361.821 307.5,364C 300.568,365.096 293.902,364.43 287.5,362C 284.784,358.305 281.117,356.139 276.5,355.5C 275.37,354.378 274.703,353.044 274.5,351.5C 280.631,354.399 286.631,357.566 292.5,361C 300.905,364.375 307.405,362.208 312,354.5C 312.5,331.169 312.667,307.836 312.5,284.5C 312.328,283.508 312.662,282.842 313.5,282.5 Z"/></g>
<g><path style="opacity:1" fill="#503122" d="M 145.5,311.5 C 145.666,316.511 145.499,321.511 145,326.5C 143.887,330.923 142.72,335.256 141.5,339.5C 143.11,344.05 144.277,348.717 145,353.5C 148.851,355.688 151.685,358.855 153.5,363C 154.833,363.333 156.167,363.667 157.5,364C 157.167,364.333 156.833,364.667 156.5,365C 162.605,367.248 168.939,368.081 175.5,367.5C 175.5,366.5 175.5,365.5 175.5,364.5C 178.877,364.932 181.877,364.265 184.5,362.5C 190.648,361.962 196.648,360.962 202.5,359.5C 193.835,363.334 184.835,366.501 175.5,369C 159.311,371.46 147.811,365.294 141,350.5C 139.281,344.071 139.114,337.737 140.5,331.5C 142.38,324.882 144.047,318.216 145.5,311.5 Z"/></g>
<g><path style="opacity:1" fill="#5f3417" d="M 74.5,341.5 C 78.3359,343.584 82.0026,345.917 85.5,348.5C 85.62,349.586 86.2867,350.253 87.5,350.5C 94.9203,348.436 102.42,346.77 110,345.5C 114.168,345.385 117.668,346.718 120.5,349.5C 121.48,352.116 122.98,354.449 125,356.5C 125.167,357.833 125.333,359.167 125.5,360.5C 123.829,368.518 121.829,376.518 119.5,384.5C 119.553,389.94 121.72,394.274 126,397.5C 131.048,404.031 132.715,411.365 131,419.5C 127.932,423.894 123.765,426.728 118.5,428C 110.933,428.09 103.6,428.924 96.5,430.5C 94.6096,430.297 93.1096,430.963 92,432.5C 88.1846,437.924 84.0179,443.091 79.5,448C 72.5637,450.424 66.0637,449.59 60,445.5C 56.7516,437.895 53.7516,430.229 51,422.5C 49.4934,418.764 48.6601,418.764 48.5,422.5C 47.8333,421.833 47.1667,421.167 46.5,420.5C 46.6309,419.624 46.2975,418.957 45.5,418.5C 40.5233,416.458 35.8566,414.124 31.5,411.5C 35.9041,411.344 39.5708,412.844 42.5,416C 44.8098,416.497 47.1432,416.663 49.5,416.5C 49.719,415.325 49.3857,414.325 48.5,413.5C 45.6913,413.148 43.358,411.982 41.5,410C 44.928,405.942 48.428,406.109 52,410.5C 52.8624,412.087 53.5291,413.754 54,415.5C 55,414.167 56,414.167 57,415.5C 57.3114,414.258 56.8114,413.258 55.5,412.5C 56.3914,411.41 57.3914,411.41 58.5,412.5C 59.3142,414.766 59.8142,417.1 60,419.5C 61.3333,420.167 62.3333,421.167 63,422.5C 63.3826,421.944 63.8826,421.611 64.5,421.5C 65.9623,425.883 67.629,430.216 69.5,434.5C 71.7329,435.016 73.3996,434.016 74.5,431.5C 74.8333,431.5 75.1667,431.5 75.5,431.5C 77.1992,431.66 78.8659,431.494 80.5,431C 82.6538,427.025 85.3204,423.525 88.5,420.5C 91.2821,422.667 93.6154,422.501 95.5,420C 103.294,419.253 111.294,418.42 119.5,417.5C 117.213,411.524 114.88,405.524 112.5,399.5C 110.854,398.221 109.687,396.555 109,394.5C 108.184,393.177 107.017,392.511 105.5,392.5C 104.833,392.5 104.5,392.167 104.5,391.5C 104.872,385.718 105.872,380.052 107.5,374.5C 108.5,370.499 109.5,366.499 110.5,362.5C 106.14,363.007 101.807,363.673 97.5,364.5C 93.1524,364.909 88.819,365.076 84.5,365C 77.6303,361.07 70.9636,356.903 64.5,352.5C 64.5,351.5 64.5,350.5 64.5,349.5C 61.6035,349.125 58.9368,349.625 56.5,351C 57.0585,351.725 57.3918,352.558 57.5,353.5C 56.5695,359.472 55.9028,365.472 55.5,371.5C 54.5,371.5 53.5,371.5 52.5,371.5C 52.719,370.325 52.3857,369.325 51.5,368.5C 49.7482,371.833 50.7482,373.499 54.5,373.5C 54.3094,376.983 53.6427,380.316 52.5,383.5C 49.8344,383.933 47.1677,384.433 44.5,385C 41.4453,387.72 38.112,390.053 34.5,392C 32.5809,393.804 32.2476,395.804 33.5,398C 32.1439,399.567 31.4772,401.4 31.5,403.5C 35.1219,402.924 38.1219,403.924 40.5,406.5C 37.6217,408.078 34.6217,409.412 31.5,410.5C 29.3206,409.897 27.154,409.23 25,408.5C 23.3903,404.939 21.557,401.606 19.5,398.5C 20.7869,393.635 22.4535,388.969 24.5,384.5C 28.5783,382.943 32.5783,381.11 36.5,379C 38.7988,375.368 41.7988,372.368 45.5,370C 44.4844,369.481 43.8178,368.647 43.5,367.5C 44.9117,359.874 46.0784,352.207 47,344.5C 50.7361,338.048 56.2361,335.548 63.5,337C 66.8897,339.185 70.5564,340.685 74.5,341.5 Z"/></g>
<g><path style="opacity:1" fill="#e0c25e" d="M 107.5,374.5 C 107.167,374.5 106.833,374.5 106.5,374.5C 106.5,373.5 106.5,372.5 106.5,371.5C 107.612,369.401 108.279,367.067 108.5,364.5C 104.881,365.244 101.215,365.577 97.5,365.5C 97.5,365.167 97.5,364.833 97.5,364.5C 101.807,363.673 106.14,363.007 110.5,362.5C 109.5,366.499 108.5,370.499 107.5,374.5 Z"/></g>
<g><path style="opacity:1" fill="#fee64a" d="M 79.5,365.5 C 81.8647,366.594 84.3647,367.261 87,367.5C 90.4895,366.724 93.9895,366.058 97.5,365.5C 101.215,365.577 104.881,365.244 108.5,364.5C 108.279,367.067 107.612,369.401 106.5,371.5C 104.861,374.991 103.361,378.657 102,382.5C 101.333,386.5 101.333,390.5 102,394.5C 106.134,398.475 109.301,403.142 111.5,408.5C 111.5,409.5 111.5,410.5 111.5,411.5C 102.477,411.535 93.4766,412.035 84.5,413C 84.927,415.128 84.427,417.295 83,419.5C 78.9021,422.728 76.0688,426.728 74.5,431.5C 71.4908,431.577 69.3241,430.244 68,427.5C 67.6667,424.167 67.3333,420.833 67,417.5C 64.4389,413.345 61.6056,409.345 58.5,405.5C 52.1592,403.63 45.9926,401.297 40,398.5C 40.0665,395.7 41.2332,393.367 43.5,391.5C 46.3119,388.599 49.3119,385.932 52.5,383.5C 52.8333,383.5 53.1667,383.5 53.5,383.5C 55.4664,382.559 57.4664,381.559 59.5,380.5C 60.4977,372.528 60.831,364.528 60.5,356.5C 62.1992,356.34 63.8659,356.506 65.5,357C 69.091,359.248 72.4244,361.915 75.5,365C 76.7932,365.49 78.1266,365.657 79.5,365.5 Z"/></g>
<g><path style="opacity:1" fill="#653e07" d="M 97.5,364.5 C 97.5,364.833 97.5,365.167 97.5,365.5C 93.9895,366.058 90.4895,366.724 87,367.5C 84.3647,367.261 81.8647,366.594 79.5,365.5C 73.1826,360.672 66.5159,356.338 59.5,352.5C 58.111,357.269 57.4443,362.269 57.5,367.5C 58.3808,373.477 57.0475,378.811 53.5,383.5C 53.1667,383.5 52.8333,383.5 52.5,383.5C 53.6427,380.316 54.3094,376.983 54.5,373.5C 50.7482,373.499 49.7482,371.833 51.5,368.5C 52.3857,369.325 52.719,370.325 52.5,371.5C 53.5,371.5 54.5,371.5 55.5,371.5C 55.9028,365.472 56.5695,359.472 57.5,353.5C 57.3918,352.558 57.0585,351.725 56.5,351C 58.9368,349.625 61.6035,349.125 64.5,349.5C 64.5,350.5 64.5,351.5 64.5,352.5C 70.9636,356.903 77.6303,361.07 84.5,365C 88.819,365.076 93.1524,364.909 97.5,364.5 Z"/></g>
<g><path style="opacity:1" fill="#a38128" d="M 59.5,352.5 C 59.6975,357.75 59.0308,362.75 57.5,367.5C 57.4443,362.269 58.111,357.269 59.5,352.5 Z"/></g>
<g><path style="opacity:1" fill="#f6db5f" d="M 59.5,352.5 C 66.5159,356.338 73.1826,360.672 79.5,365.5C 78.1266,365.657 76.7932,365.49 75.5,365C 72.4244,361.915 69.091,359.248 65.5,357C 63.8659,356.506 62.1992,356.34 60.5,356.5C 60.831,364.528 60.4977,372.528 59.5,380.5C 57.4664,381.559 55.4664,382.559 53.5,383.5C 57.0475,378.811 58.3808,373.477 57.5,367.5C 59.0308,362.75 59.6975,357.75 59.5,352.5 Z"/></g>
<g><path style="opacity:1" fill="#503526" d="M 274.5,129.5 C 283.544,146.585 292.377,163.918 301,181.5C 305.208,183.906 309.708,185.74 314.5,187C 329.926,191.357 345.259,196.023 360.5,201C 375.255,208.344 381.088,220.177 378,236.5C 376.777,240.615 374.777,244.282 372,247.5C 357.613,261.887 343.279,276.221 329,290.5C 329.193,312.164 329.193,333.83 329,355.5C 322.847,373.28 310.347,380.78 291.5,378C 276.439,371.636 261.772,364.469 247.5,356.5C 247.56,355.957 247.893,355.624 248.5,355.5C 252.522,356.848 256.522,358.181 260.5,359.5C 264.184,363.672 268.85,365.672 274.5,365.5C 274.281,366.675 274.614,367.675 275.5,368.5C 282.499,372.405 289.832,375.072 297.5,376.5C 302.057,376.389 306.39,375.389 310.5,373.5C 311.086,373.709 311.586,374.043 312,374.5C 315.385,371.612 318.552,368.612 321.5,365.5C 325.162,362.861 327.329,359.194 328,354.5C 328.193,332.14 328.36,309.807 328.5,287.5C 337.755,278.914 346.422,269.914 354.5,260.5C 361.153,255.68 366.987,250.014 372,243.5C 372.921,238.694 374.088,234.027 375.5,229.5C 375.627,223.323 373.627,217.99 369.5,213.5C 368.914,213.709 368.414,214.043 368,214.5C 367.749,212.567 367.249,210.734 366.5,209C 361.839,206.009 357.173,203.009 352.5,200C 342.298,198.598 332.631,195.598 323.5,191C 316.102,189.396 308.769,187.563 301.5,185.5C 294.837,172.17 287.67,159.17 280,146.5C 279.922,140.982 278.089,135.982 274.5,131.5C 274.5,130.833 274.5,130.167 274.5,129.5 Z"/></g>
<g><path style="opacity:1" fill="#58341d" d="M 418.5,388.5 C 415.27,386.927 412.104,385.927 409,385.5C 405.192,386.316 402.026,387.983 399.5,390.5C 397.187,392.374 394.854,394.374 392.5,396.5C 389.968,396.829 388.968,397.995 389.5,400C 388.971,402.429 387.637,404.262 385.5,405.5C 377.97,404.18 370.47,404.18 363,405.5C 362.283,404.956 361.783,404.289 361.5,403.5C 368.133,402.786 374.8,402.286 381.5,402C 382.756,401.583 383.423,400.75 383.5,399.5C 388.557,393.441 394.224,388.107 400.5,383.5C 405.166,382.349 409.833,382.349 414.5,383.5C 415.921,385.088 417.255,386.754 418.5,388.5 Z"/></g>
<g><path style="opacity:1" fill="#9d7a27" d="M 106.5,374.5 C 106.833,374.5 107.167,374.5 107.5,374.5C 105.872,380.052 104.872,385.718 104.5,391.5C 103.844,390.378 103.511,389.045 103.5,387.5C 104.298,383.11 105.298,378.777 106.5,374.5 Z"/></g>
<g><path style="opacity:1" fill="#523829" d="M 120.5,349.5 C 121.833,350.5 123.167,351.5 124.5,352.5C 126.579,355.034 127.913,358.034 128.5,361.5C 126.57,369.623 124.236,377.623 121.5,385.5C 125.333,392.5 129.167,399.5 133,406.5C 135.621,417.427 131.788,424.927 121.5,429C 113.169,429.611 104.836,430.111 96.5,430.5C 103.6,428.924 110.933,428.09 118.5,428C 123.765,426.728 127.932,423.894 131,419.5C 132.715,411.365 131.048,404.031 126,397.5C 121.72,394.274 119.553,389.94 119.5,384.5C 121.829,376.518 123.829,368.518 125.5,360.5C 125.333,359.167 125.167,357.833 125,356.5C 122.98,354.449 121.48,352.116 120.5,349.5 Z"/></g>
<g><path style="opacity:1" fill="#63390e" d="M 399.5,390.5 C 399.956,394.524 398.956,398.024 396.5,401C 396.645,401.772 396.978,402.439 397.5,403C 395.01,405.655 392.344,408.155 389.5,410.5C 390.689,411.429 392.022,411.762 393.5,411.5C 395.095,408.597 397.428,405.43 400.5,402C 401.448,401.517 402.448,401.351 403.5,401.5C 403.215,399.712 403.548,398.045 404.5,396.5C 406.258,395.872 407.758,394.872 409,393.5C 410.333,394.833 411.667,396.167 413,397.5C 415.314,404.713 416.98,412.38 418,420.5C 419.878,422.043 421.378,423.876 422.5,426C 425.513,426.502 428.513,427.002 431.5,427.5C 431.5,428.5 431.5,429.5 431.5,430.5C 435.804,431.131 440.137,431.631 444.5,432C 445.198,432.971 445.198,434.137 444.5,435.5C 447.217,437.735 447.051,439.735 444,441.5C 439.994,443.92 435.827,445.92 431.5,447.5C 433.647,445.263 435.98,443.263 438.5,441.5C 440.728,440.678 441.395,439.345 440.5,437.5C 432.855,433.668 425.355,429.668 418,425.5C 415.817,419.391 413.651,413.391 411.5,407.5C 411.365,404.226 410.365,401.226 408.5,398.5C 402.681,403.818 397.015,409.318 391.5,415C 389.922,416.094 388.255,416.928 386.5,417.5C 378.138,417.665 369.805,417.332 361.5,416.5C 362.624,415.191 364.124,414.525 366,414.5C 372.347,415.123 378.68,415.789 385,416.5C 388.013,414.898 388.013,413.565 385,412.5C 384.517,411.552 384.351,410.552 384.5,409.5C 385.833,409.5 387.167,409.5 388.5,409.5C 390.344,405.797 392.011,401.964 393.5,398C 392.944,397.617 392.611,397.117 392.5,396.5C 394.854,394.374 397.187,392.374 399.5,390.5 Z"/></g>
<g><path style="opacity:1" fill="#613710" d="M 52.5,383.5 C 49.3119,385.932 46.3119,388.599 43.5,391.5C 40.8996,392.919 38.3996,394.585 36,396.5C 35.2506,397.635 35.4173,398.635 36.5,399.5C 44.6475,402.742 52.6475,406.242 60.5,410C 62.2175,413.705 63.5509,417.539 64.5,421.5C 63.8826,421.611 63.3826,421.944 63,422.5C 62.3333,421.167 61.3333,420.167 60,419.5C 59.8142,417.1 59.3142,414.766 58.5,412.5C 57.3914,411.41 56.3914,411.41 55.5,412.5C 56.8114,413.258 57.3114,414.258 57,415.5C 56,414.167 55,414.167 54,415.5C 53.5291,413.754 52.8624,412.087 52,410.5C 48.428,406.109 44.928,405.942 41.5,410C 43.358,411.982 45.6913,413.148 48.5,413.5C 49.3857,414.325 49.719,415.325 49.5,416.5C 47.1432,416.663 44.8098,416.497 42.5,416C 39.5708,412.844 35.9041,411.344 31.5,411.5C 31.5,411.167 31.5,410.833 31.5,410.5C 34.6217,409.412 37.6217,408.078 40.5,406.5C 38.1219,403.924 35.1219,402.924 31.5,403.5C 31.4772,401.4 32.1439,399.567 33.5,398C 32.2476,395.804 32.5809,393.804 34.5,392C 38.112,390.053 41.4453,387.72 44.5,385C 47.1677,384.433 49.8344,383.933 52.5,383.5 Z"/></g>
<g><path style="opacity:1" fill="#543524" d="M 383.5,399.5 C 383.423,400.75 382.756,401.583 381.5,402C 374.8,402.286 368.133,402.786 361.5,403.5C 357.719,405.391 353.719,406.891 349.5,408C 348.308,410.572 347.308,413.239 346.5,416C 347.185,418.795 347.685,421.628 348,424.5C 350.315,431.251 352.815,437.918 355.5,444.5C 354.433,447.855 353.267,451.189 352,454.5C 351.623,455.942 350.79,456.942 349.5,457.5C 350.624,452.793 351.957,448.127 353.5,443.5C 349.722,435.612 346.222,427.612 343,419.5C 342.17,409.331 346.67,402.831 356.5,400C 365.559,400.581 374.559,400.414 383.5,399.5 Z"/></g>
<g><path style="opacity:1" fill="#eed25f" d="M 43.5,391.5 C 41.2332,393.367 40.0665,395.7 40,398.5C 45.9926,401.297 52.1592,403.63 58.5,405.5C 61.6056,409.345 64.4389,413.345 67,417.5C 67.3333,420.833 67.6667,424.167 68,427.5C 69.3241,430.244 71.4908,431.577 74.5,431.5C 73.3996,434.016 71.7329,435.016 69.5,434.5C 67.629,430.216 65.9623,425.883 64.5,421.5C 63.5509,417.539 62.2175,413.705 60.5,410C 52.6475,406.242 44.6475,402.742 36.5,399.5C 35.4173,398.635 35.2506,397.635 36,396.5C 38.3996,394.585 40.8996,392.919 43.5,391.5 Z"/></g>
<g><path style="opacity:1" fill="#fae05a" d="M 111.5,408.5 C 112.451,409.919 112.784,411.585 112.5,413.5C 108.629,413.185 104.962,413.518 101.5,414.5C 100.508,414.328 99.8417,414.662 99.5,415.5C 96.1501,415.335 92.8168,415.502 89.5,416C 84.2563,420.739 79.5897,425.905 75.5,431.5C 75.1667,431.5 74.8333,431.5 74.5,431.5C 76.0688,426.728 78.9021,422.728 83,419.5C 84.427,417.295 84.927,415.128 84.5,413C 93.4766,412.035 102.477,411.535 111.5,411.5C 111.5,410.5 111.5,409.5 111.5,408.5 Z"/></g>
<g><path style="opacity:1" fill="#f6da64" d="M 106.5,371.5 C 106.5,372.5 106.5,373.5 106.5,374.5C 105.298,378.777 104.298,383.11 103.5,387.5C 103.511,389.045 103.844,390.378 104.5,391.5C 104.5,392.167 104.833,392.5 105.5,392.5C 108.647,399.461 112.313,406.127 116.5,412.5C 111.944,414.442 106.944,415.108 101.5,414.5C 104.962,413.518 108.629,413.185 112.5,413.5C 112.784,411.585 112.451,409.919 111.5,408.5C 109.301,403.142 106.134,398.475 102,394.5C 101.333,390.5 101.333,386.5 102,382.5C 103.361,378.657 104.861,374.991 106.5,371.5 Z"/></g>
<g><path style="opacity:1" fill="#b8963a" d="M 116.5,412.5 C 117.404,413.209 117.737,414.209 117.5,415.5C 111.5,415.5 105.5,415.5 99.5,415.5C 99.8417,414.662 100.508,414.328 101.5,414.5C 106.944,415.108 111.944,414.442 116.5,412.5 Z"/></g>
<g><path style="opacity:1" fill="#61390a" d="M 105.5,392.5 C 107.017,392.511 108.184,393.177 109,394.5C 109.687,396.555 110.854,398.221 112.5,399.5C 114.88,405.524 117.213,411.524 119.5,417.5C 111.294,418.42 103.294,419.253 95.5,420C 93.6154,422.501 91.2821,422.667 88.5,420.5C 85.3204,423.525 82.6538,427.025 80.5,431C 78.8659,431.494 77.1992,431.66 75.5,431.5C 79.5897,425.905 84.2563,420.739 89.5,416C 92.8168,415.502 96.1501,415.335 99.5,415.5C 105.5,415.5 111.5,415.5 117.5,415.5C 117.737,414.209 117.404,413.209 116.5,412.5C 112.313,406.127 108.647,399.461 105.5,392.5 Z"/></g>
<g><path style="opacity:0.722" fill="#4c3324" d="M 96.5,430.5 C 91.2944,437.061 85.961,443.561 80.5,450C 71.5181,454.354 63.6848,452.854 57,445.5C 53.4677,438.068 50.6344,430.401 48.5,422.5C 48.6601,418.764 49.4934,418.764 51,422.5C 53.7516,430.229 56.7516,437.895 60,445.5C 66.0637,449.59 72.5637,450.424 79.5,448C 84.0179,443.091 88.1846,437.924 92,432.5C 93.1096,430.963 94.6096,430.297 96.5,430.5 Z"/></g>
<g><path style="opacity:0.545" fill="#4e3425" d="M 424.5,495.5 C 428.465,484.93 430.798,474.263 431.5,463.5C 438.194,460.584 444.027,456.584 449,451.5C 451.146,450.624 452.979,449.291 454.5,447.5C 457.965,437.66 455.299,430.16 446.5,425C 440.327,421.748 434.327,418.248 428.5,414.5C 426.229,405.314 422.896,396.648 418.5,388.5C 417.255,386.754 415.921,385.088 414.5,383.5C 409.833,382.349 405.166,382.349 400.5,383.5C 411.479,378.3 419.646,381.3 425,392.5C 426.867,399.933 429.034,407.267 431.5,414.5C 438.5,418.333 445.5,422.167 452.5,426C 458.889,433.056 460.056,440.89 456,449.5C 448.844,455.078 441.51,460.411 434,465.5C 432.89,474.721 430.89,483.721 428,492.5C 427.241,494.063 426.074,495.063 424.5,495.5 Z"/></g>
<g><path style="opacity:1" fill="#5f3416" d="M 418.5,388.5 C 422.896,396.648 426.229,405.314 428.5,414.5C 434.327,418.248 440.327,421.748 446.5,425C 455.299,430.16 457.965,437.66 454.5,447.5C 452.979,449.291 451.146,450.624 449,451.5C 444.027,456.584 438.194,460.584 431.5,463.5C 430.4,465.277 429.566,467.277 429,469.5C 428.418,475.244 427.418,480.911 426,486.5C 424.974,489.693 422.808,491.026 419.5,490.5C 419.52,492.143 418.853,493.476 417.5,494.5C 415.235,495.647 412.902,495.814 410.5,495C 407.352,492.305 403.685,490.972 399.5,491C 397,487.167 393.833,484 390,481.5C 389.583,482.756 388.75,483.423 387.5,483.5C 377.328,482.682 366.995,482.515 356.5,483C 350.245,480.501 347.245,475.835 347.5,469C 347.727,465.064 348.393,461.23 349.5,457.5C 350.79,456.942 351.623,455.942 352,454.5C 353.267,451.189 354.433,447.855 355.5,444.5C 352.815,437.918 350.315,431.251 348,424.5C 347.685,421.628 347.185,418.795 346.5,416C 347.308,413.239 348.308,410.572 349.5,408C 353.719,406.891 357.719,405.391 361.5,403.5C 361.783,404.289 362.283,404.956 363,405.5C 370.47,404.18 377.97,404.18 385.5,405.5C 387.637,404.262 388.971,402.429 389.5,400C 388.968,397.995 389.968,396.829 392.5,396.5C 392.611,397.117 392.944,397.617 393.5,398C 392.011,401.964 390.344,405.797 388.5,409.5C 387.167,409.5 385.833,409.5 384.5,409.5C 384.351,410.552 384.517,411.552 385,412.5C 388.013,413.565 388.013,414.898 385,416.5C 378.68,415.789 372.347,415.123 366,414.5C 364.124,414.525 362.624,415.191 361.5,416.5C 361.167,416.5 360.833,416.5 360.5,416.5C 359.378,418.288 359.211,420.288 360,422.5C 363.089,428.948 365.922,435.448 368.5,442C 368.405,447.853 366.572,453.02 363,457.5C 361.158,461.815 361.158,466.148 363,470.5C 363.561,471.022 364.228,471.355 365,471.5C 371.391,470.328 377.724,468.995 384,467.5C 386.589,467.851 389.089,468.518 391.5,469.5C 392.246,470.736 392.579,472.07 392.5,473.5C 394.527,473.338 396.527,473.505 398.5,474C 400.309,476.238 402.642,477.405 405.5,477.5C 406.219,479.888 407.885,481.388 410.5,482C 412.473,482.495 414.473,482.662 416.5,482.5C 416.921,473.694 418.254,465.027 420.5,456.5C 421.93,456.579 423.264,456.246 424.5,455.5C 426.936,452.743 429.27,450.077 431.5,447.5C 435.827,445.92 439.994,443.92 444,441.5C 447.051,439.735 447.217,437.735 444.5,435.5C 445.198,434.137 445.198,432.971 444.5,432C 440.137,431.631 435.804,431.131 431.5,430.5C 431.5,429.5 431.5,428.5 431.5,427.5C 428.513,427.002 425.513,426.502 422.5,426C 421.378,423.876 419.878,422.043 418,420.5C 416.98,412.38 415.314,404.713 413,397.5C 411.667,396.167 410.333,394.833 409,393.5C 407.758,394.872 406.258,395.872 404.5,396.5C 403.548,398.045 403.215,399.712 403.5,401.5C 402.448,401.351 401.448,401.517 400.5,402C 397.428,405.43 395.095,408.597 393.5,411.5C 392.022,411.762 390.689,411.429 389.5,410.5C 392.344,408.155 395.01,405.655 397.5,403C 396.978,402.439 396.645,401.772 396.5,401C 398.956,398.024 399.956,394.524 399.5,390.5C 402.026,387.983 405.192,386.316 409,385.5C 412.104,385.927 415.27,386.927 418.5,388.5 Z"/></g>
<g><path style="opacity:1" fill="#643c07" d="M 360.5,416.5 C 361.376,420.582 363.043,424.249 365.5,427.5C 365.66,429.153 366.326,430.486 367.5,431.5C 369.111,435.058 370.445,438.724 371.5,442.5C 368.625,451.125 365.958,459.791 363.5,468.5C 370.392,468.127 377.058,467.127 383.5,465.5C 386.187,465.336 388.854,465.503 391.5,466C 396.421,469.613 401.088,473.446 405.5,477.5C 402.642,477.405 400.309,476.238 398.5,474C 396.527,473.505 394.527,473.338 392.5,473.5C 392.579,472.07 392.246,470.736 391.5,469.5C 389.089,468.518 386.589,467.851 384,467.5C 377.724,468.995 371.391,470.328 365,471.5C 364.228,471.355 363.561,471.022 363,470.5C 361.158,466.148 361.158,461.815 363,457.5C 366.572,453.02 368.405,447.853 368.5,442C 365.922,435.448 363.089,428.948 360,422.5C 359.211,420.288 359.378,418.288 360.5,416.5 Z"/></g>
<g><path style="opacity:1" fill="#694207" d="M 431.5,447.5 C 429.27,450.077 426.936,452.743 424.5,455.5C 423.264,456.246 421.93,456.579 420.5,456.5C 418.254,465.027 416.921,473.694 416.5,482.5C 414.473,482.662 412.473,482.495 410.5,482C 407.885,481.388 406.219,479.888 405.5,477.5C 407.799,478.778 410.132,480.111 412.5,481.5C 412.833,481.167 413.167,480.833 413.5,480.5C 414.917,472.086 416.75,463.753 419,455.5C 423.068,452.583 427.234,449.917 431.5,447.5 Z"/></g>
<g><path style="opacity:1" fill="#f2d660" d="M 438.5,441.5 C 435.98,443.263 433.647,445.263 431.5,447.5C 427.234,449.917 423.068,452.583 419,455.5C 416.75,463.753 414.917,472.086 413.5,480.5C 413.167,480.833 412.833,481.167 412.5,481.5C 410.132,480.111 407.799,478.778 405.5,477.5C 401.088,473.446 396.421,469.613 391.5,466C 388.854,465.503 386.187,465.336 383.5,465.5C 384.514,464.235 386.014,463.569 388,463.5C 389.5,463.667 391,463.833 392.5,464C 399.374,468.732 406.041,473.565 412.5,478.5C 414.043,470.339 415.71,462.172 417.5,454C 420.598,451.921 423.598,449.754 426.5,447.5C 427.689,446.571 429.022,446.238 430.5,446.5C 430.5,445.5 430.5,444.5 430.5,443.5C 433.167,442.833 435.833,442.167 438.5,441.5 Z"/></g>
<g><path style="opacity:1" fill="#f3d762" d="M 367.5,431.5 C 375.245,439.761 375.412,448.428 368,457.5C 367.502,460.482 367.335,463.482 367.5,466.5C 372.787,465.658 378.12,465.324 383.5,465.5C 377.058,467.127 370.392,468.127 363.5,468.5C 365.958,459.791 368.625,451.125 371.5,442.5C 370.445,438.724 369.111,435.058 367.5,431.5 Z"/></g>
<g><path style="opacity:1" fill="#f6dc68" d="M 411.5,407.5 C 413.651,413.391 415.817,419.391 418,425.5C 425.355,429.668 432.855,433.668 440.5,437.5C 441.395,439.345 440.728,440.678 438.5,441.5C 438.762,440.022 438.429,438.689 437.5,437.5C 430.524,434.458 423.857,431.125 417.5,427.5C 416.531,426.691 415.698,425.691 415,424.5C 413.387,418.938 412.221,413.271 411.5,407.5 Z"/></g>
<g><path style="opacity:1" fill="#e8c85c" d="M 360.5,416.5 C 360.833,416.5 361.167,416.5 361.5,416.5C 369.805,417.332 378.138,417.665 386.5,417.5C 386.5,417.833 386.5,418.167 386.5,418.5C 378.833,418.5 371.167,418.5 363.5,418.5C 364.461,421.426 365.127,424.426 365.5,427.5C 363.043,424.249 361.376,420.582 360.5,416.5 Z"/></g>
<g><path style="opacity:1" fill="#fee649" d="M 417.5,427.5 C 423.857,431.125 430.524,434.458 437.5,437.5C 438.429,438.689 438.762,440.022 438.5,441.5C 435.833,442.167 433.167,442.833 430.5,443.5C 430.5,444.5 430.5,445.5 430.5,446.5C 429.022,446.238 427.689,446.571 426.5,447.5C 423.598,449.754 420.598,451.921 417.5,454C 415.71,462.172 414.043,470.339 412.5,478.5C 406.041,473.565 399.374,468.732 392.5,464C 391,463.833 389.5,463.667 388,463.5C 386.014,463.569 384.514,464.235 383.5,465.5C 378.12,465.324 372.787,465.658 367.5,466.5C 367.335,463.482 367.502,460.482 368,457.5C 375.412,448.428 375.245,439.761 367.5,431.5C 366.326,430.486 365.66,429.153 365.5,427.5C 365.127,424.426 364.461,421.426 363.5,418.5C 371.167,418.5 378.833,418.5 386.5,418.5C 389.5,418.5 392.5,418.5 395.5,418.5C 395.317,412.684 396.65,412.184 399.5,417C 398.151,418.635 398.318,420.135 400,421.5C 401.163,418.875 402.33,416.209 403.5,413.5C 407.168,412.592 410.002,413.926 412,417.5C 412.988,420.424 413.654,423.424 414,426.5C 414.953,428.373 416.12,428.706 417.5,427.5 Z"/></g>
<g><path style="opacity:1" fill="#fae153" d="M 411.5,407.5 C 412.221,413.271 413.387,418.938 415,424.5C 415.698,425.691 416.531,426.691 417.5,427.5C 416.12,428.706 414.953,428.373 414,426.5C 413.654,423.424 412.988,420.424 412,417.5C 410.002,413.926 407.168,412.592 403.5,413.5C 402.33,416.209 401.163,418.875 400,421.5C 398.318,420.135 398.151,418.635 399.5,417C 396.65,412.184 395.317,412.684 395.5,418.5C 392.5,418.5 389.5,418.5 386.5,418.5C 386.5,418.167 386.5,417.833 386.5,417.5C 388.255,416.928 389.922,416.094 391.5,415C 397.015,409.318 402.681,403.818 408.5,398.5C 410.365,401.226 411.365,404.226 411.5,407.5 Z"/></g>
<g><path style="opacity:1" fill="#52372a" d="M 349.5,457.5 C 348.393,461.23 347.727,465.064 347.5,469C 347.245,475.835 350.245,480.501 356.5,483C 366.995,482.515 377.328,482.682 387.5,483.5C 379.667,484.452 371.834,485.452 364,486.5C 353.247,485.917 347.081,480.25 345.5,469.5C 345.929,465.085 347.262,461.085 349.5,457.5 Z"/></g>
<g><path style="opacity:0.986" fill="#59351d" d="M 431.5,463.5 C 430.798,474.263 428.465,484.93 424.5,495.5C 422.81,497.342 420.81,498.675 418.5,499.5C 415.167,499.5 411.833,499.5 408.5,499.5C 400.953,494.962 393.953,489.629 387.5,483.5C 388.75,483.423 389.583,482.756 390,481.5C 393.833,484 397,487.167 399.5,491C 403.685,490.972 407.352,492.305 410.5,495C 412.902,495.814 415.235,495.647 417.5,494.5C 418.853,493.476 419.52,492.143 419.5,490.5C 422.808,491.026 424.974,489.693 426,486.5C 427.418,480.911 428.418,475.244 429,469.5C 429.566,467.277 430.4,465.277 431.5,463.5 Z"/></g>
</svg>
